<svg width="40" height="33" viewBox="0 0 40 33" fill="none" xmlns="http://www.w3.org/2000/svg">
<path d="M27.8498 14.0007L26.9045 13.8405C26.8203 13.6062 26.7252 13.3764 26.6201 13.1529L27.1767 12.3742C27.6611 11.6938 27.5833 10.7748 26.9937 10.1909L25.8577 9.05491C25.5367 8.73383 25.1111 8.55696 24.6594 8.55696C24.3038 8.55696 23.9636 8.66656 23.6782 8.87198L22.8965 9.42876C22.6547 9.31443 22.4094 9.21343 22.1624 9.12616L22.0061 8.19999C21.8686 7.37967 21.1649 6.78442 20.3329 6.78442H18.7281C17.8962 6.78442 17.1926 7.37967 17.0553 8.19836L16.891 9.1608C16.659 9.24553 16.4302 9.3418 16.2062 9.44932L15.4387 8.89651C15.1509 8.68931 14.8094 8.5799 14.4511 8.5799C13.995 8.5799 13.5693 8.75704 13.2517 9.07884L12.1132 10.2137C11.5252 10.8017 11.4482 11.7199 11.9301 12.3969L12.4957 13.1917C12.3915 13.416 12.2977 13.6469 12.2149 13.8824L11.2886 14.0388C10.4684 14.1764 9.87317 14.8801 9.87317 15.7119V17.3168C9.87317 18.1486 10.4684 18.8523 11.2871 18.9897L12.2495 19.1538C12.3343 19.386 12.4307 19.6149 12.5381 19.8388L11.9873 20.6049C11.503 21.2853 11.5808 22.2044 12.1704 22.7881L13.3063 23.9241C13.6274 24.2452 14.053 24.4221 14.5046 24.4221C14.8603 24.4221 15.2004 24.3125 15.4857 24.1072L16.2804 23.5415C16.4892 23.6386 16.7058 23.7274 16.928 23.8074L17.0855 24.7526C17.2232 25.5727 17.9268 26.168 18.7587 26.168H20.3672C21.1991 26.168 21.9029 25.5727 22.0402 24.7536L22.2005 23.8082C22.4348 23.724 22.6646 23.629 22.8881 23.5238L23.6643 24.0786C23.9521 24.2858 24.2936 24.3954 24.6519 24.3954C25.1034 24.3954 25.529 24.2186 25.8501 23.8975L26.986 22.7615C27.5741 22.1735 27.651 21.2552 27.169 20.5782L26.6118 19.7958C26.7198 19.5672 26.8152 19.3375 26.8972 19.1091L27.8412 18.9518C28.6613 18.8141 29.2566 18.1105 29.2566 17.2786V15.677C29.2659 14.8443 28.675 14.1398 27.8498 14.0007ZM28.1208 17.2786C28.1208 17.5535 27.9241 17.7862 27.6538 17.8316L26.4018 18.0402C26.1708 18.0787 25.9845 18.2417 25.9151 18.4657C25.8039 18.8261 25.6512 19.1945 25.4614 19.56C25.354 19.7662 25.3712 20.0118 25.5061 20.2008L26.2439 21.2369C26.403 21.4605 26.3774 21.764 26.183 21.9585L25.047 23.0943C24.9389 23.2024 24.8023 23.2597 24.6519 23.2597C24.5333 23.2597 24.4213 23.2242 24.3264 23.1559L23.2948 22.4185C23.105 22.2823 22.8583 22.2651 22.6512 22.3735C22.3042 22.5551 21.9355 22.7079 21.5553 22.8273C21.3335 22.8968 21.1715 23.0825 21.133 23.3111L20.9203 24.5645C20.8749 24.8356 20.6423 25.0322 20.3672 25.0322H18.7587C18.4836 25.0322 18.2511 24.8356 18.2058 24.5652L17.9971 23.3132C17.9589 23.0837 17.7974 22.8976 17.5756 22.8276C17.2009 22.7093 16.844 22.5626 16.5147 22.3914C16.4249 22.3449 16.3277 22.3219 16.2311 22.3219C16.1059 22.3219 15.9814 22.3604 15.8748 22.4363L14.8246 23.1837C14.73 23.2519 14.6223 23.2863 14.5046 23.2863C14.3542 23.2863 14.2176 23.2292 14.1095 23.121L12.9715 21.9831C12.7773 21.7909 12.7526 21.4883 12.911 21.2658L13.6444 20.2456C13.7824 20.0541 13.7992 19.8057 13.688 19.5967C13.5015 19.247 13.347 18.8802 13.2285 18.5065C13.1584 18.2862 12.9734 18.1251 12.7457 18.0862L11.4766 17.8699C11.2056 17.8243 11.0089 17.5917 11.0089 17.3168V15.7119C11.0089 15.437 11.2056 15.2044 11.477 15.1588L12.7136 14.9502C12.9447 14.9113 13.1309 14.7479 13.1997 14.5231C13.3164 14.1412 13.4665 13.772 13.6458 13.4259C13.7526 13.2202 13.7355 12.9752 13.6011 12.786L12.8554 11.7384C12.6961 11.5148 12.7217 11.2114 12.9156 11.0175L14.0554 9.88159L14.0595 9.87727C14.162 9.77301 14.301 9.71566 14.4511 9.71566C14.5697 9.71566 14.6818 9.75113 14.775 9.81829L15.7995 10.5558C15.9913 10.6939 16.2401 10.7105 16.4483 10.5993C16.798 10.4128 17.1648 10.2582 17.538 10.1399C17.7584 10.07 17.9194 9.88526 17.9586 9.65694L18.1751 8.38781C18.2205 8.11685 18.4532 7.92018 18.7282 7.92018H20.3331C20.608 7.92018 20.8406 8.11685 20.8861 8.38822L21.0948 9.62529C21.1338 9.85657 21.2976 10.0426 21.5225 10.1112C21.906 10.2278 22.2884 10.3851 22.6594 10.5791C22.8656 10.6868 23.1112 10.67 23.3011 10.5349L24.3395 9.79535C24.434 9.72717 24.5417 9.69271 24.6596 9.69271C24.8098 9.69271 24.9465 9.7498 25.0547 9.85808L26.1925 10.9959C26.3867 11.1881 26.4116 11.4907 26.2522 11.7145L25.5141 12.7471C25.3786 12.937 25.3617 13.1834 25.4699 13.3899C25.6516 13.7368 25.8042 14.1055 25.9237 14.4858C25.9934 14.7076 26.1789 14.8694 26.4076 14.908L27.6599 15.1205L27.6609 15.1207C27.9311 15.1661 28.1247 15.3953 28.1208 15.6658V17.2786Z" fill="#242B44"/>
<path d="M19.5652 12.7078C17.4871 12.7078 15.7965 14.3984 15.7965 16.4765C15.7965 18.5546 17.4871 20.2452 19.5652 20.2452C21.6433 20.2452 23.3339 18.5546 23.3339 16.4765C23.3339 14.3984 21.6433 12.7078 19.5652 12.7078ZM19.5652 19.1094C18.1134 19.1094 16.9323 17.9283 16.9323 16.4765C16.9323 15.0247 18.1134 13.8435 19.5652 13.8435C21.017 13.8435 22.1982 15.0247 22.1982 16.4765C22.1982 17.9283 21.017 19.1094 19.5652 19.1094Z" fill="#242B44"/>
<path d="M32.4041 9.04454C33.7008 11.3165 34.3544 13.9603 34.2943 16.6901C34.2542 18.4226 33.9402 20.1381 33.3631 21.7725L31.5366 18.3119C31.3223 17.9054 30.8187 17.7498 30.412 17.9646C30.0055 18.1792 29.8495 18.6827 30.0645 19.0892L32.5914 23.8773C32.6343 24.2107 32.8736 24.4857 33.1981 24.5741C33.5226 24.6624 33.8682 24.5469 34.0745 24.2812L38.6856 21.4444C39.0797 21.2075 39.2073 20.696 38.9707 20.3019C38.7337 19.9081 38.2222 19.7804 37.8281 20.0171C37.8228 20.0202 37.8179 20.0231 37.813 20.0265L35.1528 21.6633C35.6481 20.0623 35.9197 18.4007 35.9593 16.726C36.0257 13.695 35.2963 10.7533 33.8501 8.2193C31.5399 4.17139 27.7404 1.39205 23.1527 0.394628C19.0885 -0.488952 14.6509 0.131284 11.282 2.054C10.8827 2.28187 10.7436 2.79012 10.9715 3.18949C11.1995 3.58886 11.7078 3.72754 12.1071 3.49971C15.1285 1.77529 19.1253 1.22244 22.7985 2.02133C26.9191 2.91763 30.3306 5.41137 32.4041 9.04454Z" fill="#242B44"/>
<path d="M28.0881 29.82C27.8602 29.4207 27.3527 29.2814 26.9542 29.5089C23.9396 31.2294 19.9497 31.7785 16.2816 30.9765C12.167 30.0768 8.75925 27.5809 6.6857 23.9478C5.38905 21.6758 4.73349 19.0331 4.79092 16.3048C4.82954 14.5731 5.14142 12.8589 5.71581 11.226L7.54252 14.6865C7.75736 15.0928 8.26028 15.2486 8.66585 15.0346C9.07147 14.8204 9.22646 14.3175 9.01199 13.9108L6.48448 9.12291C6.44133 8.78964 6.20198 8.51479 5.87807 8.42593C5.55411 8.33742 5.20937 8.45239 5.00365 8.71775L0.402799 11.5487C0.0093774 11.7852 -0.1176 12.2964 0.119216 12.6904C0.35568 13.0843 0.866699 13.2125 1.25989 12.9761C1.26508 12.9732 1.27004 12.9703 1.27519 12.9668L3.92941 11.3334C3.43623 12.9331 3.16706 14.5933 3.12871 16.2673C3.06507 19.2968 3.79623 22.2374 5.24242 24.7715C7.55266 28.8194 11.3482 31.6009 15.9293 32.6023C19.9878 33.4889 24.4175 32.8734 27.7793 30.9546C28.1778 30.7271 28.316 30.2194 28.0881 29.82Z" fill="#242B44"/>
</svg>
