<svg width="121" height="18" viewBox="0 0 121 18" fill="none" xmlns="http://www.w3.org/2000/svg">
<path d="M5.89551 6.51074C7.48275 6.51074 8.7443 6.95622 9.68018 7.84717C10.6235 8.73812 11.0952 9.9585 11.0952 11.5083C11.0952 13.3426 10.5299 14.7539 9.39941 15.7422C8.26888 16.7305 6.65169 17.2246 4.54785 17.2246C2.72103 17.2246 1.24609 16.9289 0.123047 16.3374V13.3389C0.714518 13.6533 1.40332 13.9116 2.18945 14.1138C2.97559 14.3084 3.72054 14.4058 4.42432 14.4058C6.54313 14.4058 7.60254 13.5373 7.60254 11.8003C7.60254 10.1457 6.5057 9.31836 4.31201 9.31836C3.9152 9.31836 3.47721 9.35954 2.99805 9.44189C2.51888 9.51676 2.12956 9.59912 1.83008 9.68896L0.44873 8.94775L1.06641 0.581055H9.97217V3.52344H4.10986L3.80664 6.74658L4.19971 6.66797C4.65641 6.56315 5.22168 6.51074 5.89551 6.51074Z" fill="#E1305A"/>
<path d="M23.4577 17L19.5046 4.11865H19.4035C19.5458 6.7391 19.6169 8.4873 19.6169 9.36328V17H16.5061V0.581055H21.2453L25.1311 13.1367H25.1984L29.32 0.581055H34.0593V17H30.8137V9.22852C30.8137 8.86165 30.8174 8.43864 30.8249 7.95947C30.8399 7.48031 30.8923 6.20752 30.9821 4.14111H30.8811L26.6472 17H23.4577ZM40.5033 17V0.581055H43.9848V17H40.5033ZM64.9835 17H60.5587L53.4161 4.5791H53.315C53.4573 6.77279 53.5284 8.33757 53.5284 9.27344V17H50.4176V0.581055H54.8087L61.94 12.8784H62.0187C61.9063 10.7446 61.8502 9.236 61.8502 8.35254V0.581055H64.9835V17ZM71.4275 0.581055H76.5374C78.8658 0.581055 80.5542 0.914225 81.6023 1.58057C82.658 2.23942 83.1858 3.29134 83.1858 4.73633C83.1858 5.71712 82.9537 6.52197 82.4895 7.15088C82.0328 7.77979 81.4227 8.15788 80.659 8.28516V8.39746C81.6997 8.62956 82.4484 9.0638 82.9051 9.7002C83.3693 10.3366 83.6014 11.1826 83.6014 12.2383C83.6014 13.7357 83.0586 14.9036 81.9729 15.7422C80.8948 16.5807 79.4274 17 77.5706 17H71.4275V0.581055ZM74.909 7.0835H76.9305C77.8738 7.0835 78.5551 6.9375 78.9744 6.64551C79.4012 6.35352 79.6145 5.87061 79.6145 5.19678C79.6145 4.56787 79.3825 4.11865 78.9183 3.84912C78.4616 3.5721 77.7353 3.43359 76.7395 3.43359H74.909V7.0835ZM74.909 9.84619V14.125H77.1775C78.1359 14.125 78.8434 13.9416 79.3001 13.5747C79.7568 13.2078 79.9852 12.6463 79.9852 11.8901C79.9852 10.5275 79.0118 9.84619 77.0652 9.84619H74.909ZM104.083 8.76807C104.083 11.4858 103.41 13.5747 102.062 15.0347C100.714 16.4946 98.7827 17.2246 96.2671 17.2246C93.7515 17.2246 91.8198 16.4946 90.4722 15.0347C89.1245 13.5747 88.4507 11.4784 88.4507 8.74561C88.4507 6.01286 89.1245 3.92773 90.4722 2.49023C91.8273 1.04525 93.7664 0.322754 96.2896 0.322754C98.8127 0.322754 100.741 1.04899 102.073 2.50146C103.413 3.95394 104.083 6.04281 104.083 8.76807ZM92.1006 8.76807C92.1006 10.6024 92.4487 11.9837 93.145 12.9121C93.8413 13.8405 94.882 14.3047 96.2671 14.3047C99.0448 14.3047 100.434 12.4591 100.434 8.76807C100.434 5.0695 99.0522 3.22021 96.2896 3.22021C94.9045 3.22021 93.86 3.68815 93.1562 4.62402C92.4525 5.55241 92.1006 6.93376 92.1006 8.76807ZM116.12 17H112.639V3.47852H108.18V0.581055H120.579V3.47852H116.12V17Z" fill="#191C1C"/>
</svg>
