<svg width="270" height="255" viewBox="0 0 270 255" fill="none" xmlns="http://www.w3.org/2000/svg">
<path d="M270 255H0V3.54137e-06H270V255Z" fill="#B8BCC9"/>
<path d="M154.293 198.372C141.085 204.908 127.682 211.51 113.226 214.381C98.7727 217.254 82.8901 216.002 70.6767 207.754C58.3741 199.448 51.4274 185.416 45.1087 171.982C36.9887 154.714 28.8607 135.249 34.8687 117.138C39.3261 103.696 50.8314 93.8423 62.7554 86.1997C100.21 62.1943 145.981 53.497 190.442 55.065C205.261 55.5877 221.959 58.2583 230.425 70.4317C236.694 79.4503 236.65 91.4037 234.874 102.241C227.919 144.665 194.805 178.328 154.293 198.372Z" fill="#4199E2"/>
<g opacity="0.149994">
<g opacity="0.149994">
<path opacity="0.149994" d="M124.879 149.712C123.745 150.067 122.619 150.44 121.503 150.856C119.185 151.719 116.933 152.708 114.743 153.812C97.336 162.586 83.9627 178.604 75.2027 196.194C66.0573 214.56 61.3267 234.722 56.9854 254.807H243.359C243.135 241.011 242.123 227.252 238.911 213.867C234.292 194.603 224.675 175.928 208.945 163.884C201.105 157.88 192.049 153.74 182.543 150.959C178.772 149.855 174.928 148.975 171.063 148.268C169.487 147.98 167.909 147.712 166.331 147.483C163.861 147.124 161.376 146.835 158.881 146.622C158.812 141.02 158.588 135.422 158.177 129.835C160.717 129.218 163.167 128.271 165.453 126.926C169.588 124.49 172.892 120.926 175.443 116.838C179.497 120.891 185.597 122.871 191.249 121.803C197.671 120.588 203.196 115.502 204.937 109.204C206.68 102.907 204.551 95.7016 199.665 91.3616C198.721 90.5229 197.681 89.8016 196.575 89.1976C199.928 85.8429 202.616 81.8696 204.129 77.3922C206.563 70.2016 205.592 61.6656 200.653 55.9002C198.449 53.3282 195.489 51.2602 194.228 48.1176C192.407 43.5842 194.709 38.4989 194.563 33.6149C194.368 27.2016 189.588 21.3816 183.539 19.2416C177.489 17.1016 170.519 18.3856 165.155 21.9082C157.297 13.7349 148.283 10.1629 139.483 10.8109C130.684 11.4576 122.288 16.3096 117.332 23.6109C112.845 30.2256 111.009 38.7069 105.089 44.0789C102.101 46.7896 98.292 48.4762 95.3333 51.2176C89.5853 56.5442 87.9173 65.2469 89.456 72.9322C90.4053 77.6749 92.4107 82.0962 95.2907 86.1602C90.964 90.0269 88.652 96.1042 89.48 101.864C90.4093 108.332 95.2467 114.076 101.463 116.096C106.735 117.807 112.775 116.756 117.265 113.539C118.443 115.778 119.881 117.864 121.636 119.7C125.469 123.711 130.547 126.335 135.788 128.148C136.336 128.338 136.889 128.516 137.447 128.687C136.885 134.806 136.612 140.948 136.609 147.094C132.635 147.662 128.711 148.512 124.879 149.712Z" fill="#2C2355"/>
</g>
</g>
<path d="M124.788 116.654C124.269 126.074 124.409 135.533 125.208 144.933C125.208 144.933 147.498 144.488 147.512 144.573C146.964 134.43 145.848 124.316 144.173 114.296L124.788 116.654Z" fill="#F5BFA6"/>
<path d="M145.858 126.122C145.374 122.168 144.83 118.223 144.172 114.295L124.787 116.654C124.596 120.12 124.526 123.59 124.512 127.06C131.542 128.688 139.002 128.364 145.858 126.122Z" fill="#D5A38D"/>
<path d="M174.726 84.7983C180.834 80.289 185.906 74.0623 187.876 66.7303C189.849 59.3983 188.338 50.9423 183.042 45.501C180.681 43.0757 177.596 41.1983 176.137 38.1423C174.032 33.7343 176.008 28.513 175.552 23.6477C174.952 17.2597 169.812 11.7543 163.64 10.0023C157.466 8.249 150.59 9.97433 145.46 13.8303C137.101 6.17166 127.877 3.17966 119.137 4.38233C110.397 5.58766 102.324 10.9623 97.8424 18.5637C93.7837 25.449 92.489 34.0303 86.921 39.7663C84.113 42.6623 80.4184 44.5863 77.6384 47.5103C72.241 53.1903 71.129 61.9823 73.149 69.553C75.173 77.1223 79.8917 83.6797 86.5677 89.1037C115.417 96.1343 150.46 102.71 174.726 84.7983Z" fill="#01084E"/>
<path d="M99.9033 78.9889C94.0246 76.1383 86.5526 76.9329 81.4033 80.9543C76.254 84.9756 73.6713 92.0303 75.01 98.4263C76.3486 104.822 81.542 110.248 87.8726 111.868C94.202 113.488 101.363 111.22 105.607 106.252L99.9033 78.9889Z" fill="#F5BFA6"/>
<path d="M81.9292 95.6764C83.7692 90.5511 89.2679 86.9951 94.6959 87.4177" stroke="#2C2355" stroke-width="1.448" stroke-miterlimit="10" stroke-linecap="round" stroke-linejoin="round"/>
<path d="M87.0674 89.4108C88.202 92.8482 90.7127 95.8388 93.9594 97.4548" stroke="#2C2355" stroke-width="1.448" stroke-miterlimit="10" stroke-linecap="round" stroke-linejoin="round"/>
<path d="M165.808 78.9889C171.687 76.1383 179.158 76.9329 184.307 80.9543C189.458 84.9756 192.04 92.0303 190.7 98.4263C189.363 104.822 184.17 110.248 177.839 111.868C171.508 113.488 164.347 111.22 160.103 106.252L165.808 78.9889Z" fill="#F5BFA6"/>
<path d="M183.781 95.6764C181.942 90.5511 176.443 86.9951 171.014 87.4177" stroke="#2C2355" stroke-width="1.448" stroke-miterlimit="10" stroke-linecap="round" stroke-linejoin="round"/>
<path d="M178.644 89.4108C177.508 92.8482 174.997 95.8388 171.752 97.4548" stroke="#2C2355" stroke-width="1.448" stroke-miterlimit="10" stroke-linecap="round" stroke-linejoin="round"/>
<path d="M167.846 75.2663C167.614 83.2449 167.373 91.3129 165.278 99.0143C163.183 106.718 159.027 114.14 152.419 118.617C143.963 124.348 132.738 124.438 122.891 121.718C117.545 120.242 112.313 117.945 108.233 114.186C103.078 109.437 100.134 102.669 98.7913 95.7889C97.446 88.9076 97.5687 81.8356 97.6967 74.8263C102.082 74.6636 106.475 72.8156 110.009 70.0863C113.542 67.3556 116.329 63.7889 120.802 59.8956C121.678 63.0929 124.545 65.5356 127.759 66.3503C130.973 67.1623 134.445 66.4889 137.383 64.9569C140.323 63.4276 142.779 61.0929 145.531 58.9649C147.937 62.9156 150.718 66.7529 154.486 69.4356C158.253 72.1183 163.161 73.5169 167.846 75.2663Z" fill="#F5BFA6"/>
<path d="M159.741 99.6075C155.934 98.8781 151.766 100.822 149.878 104.206C147.862 107.817 148.622 112.422 151.321 115.205C152.158 116.069 153.185 116.717 154.29 117.183C158.998 113.314 162.297 107.879 164.33 102.051C163.057 100.833 161.475 99.9408 159.741 99.6075Z" fill="#D4A38D"/>
<path d="M108.233 114.186C110.133 115.936 112.289 117.358 114.583 118.54C115.445 118.1 116.237 117.526 116.914 116.829C119.611 114.048 120.371 109.442 118.357 105.832C116.469 102.448 112.299 100.504 108.493 101.233C105.819 101.745 103.491 103.56 102.153 105.918C103.694 109.012 105.693 111.845 108.233 114.186Z" fill="#D4A38D"/>
<path d="M106.571 84.2676C107.798 82.5636 109.766 81.4129 111.854 81.1849C113.941 80.9556 116.113 81.6502 117.679 83.0476" stroke="#2C2355" stroke-width="1.448" stroke-miterlimit="10" stroke-linecap="round" stroke-linejoin="round"/>
<path d="M144.855 81.7043C146.451 80.2843 148.57 79.467 150.708 79.4497C152.844 79.4323 154.978 80.2177 156.595 81.6137" stroke="#2C2355" stroke-width="1.448" stroke-miterlimit="10" stroke-linecap="round" stroke-linejoin="round"/>
<path d="M130.6 85.5359C129.165 86.0586 127.895 87.0292 127.013 88.2772C126.789 88.5919 126.583 88.9639 126.651 89.3452C126.753 89.9266 127.416 90.2052 127.992 90.3319C129.399 90.6412 130.872 90.6399 132.279 90.3306" stroke="#2C2355" stroke-width="1.448" stroke-miterlimit="10" stroke-linecap="round" stroke-linejoin="round"/>
<path d="M122.28 100.689C129.48 101.632 136.986 100.045 143.188 96.2689" stroke="#2C2355" stroke-width="1.448" stroke-miterlimit="10" stroke-linecap="round" stroke-linejoin="round"/>
<path d="M171 141.518C167.166 140.656 163.274 140.02 159.372 139.56L137.345 150.132L113.373 143.932C112.265 144.358 111.164 144.803 110.076 145.288C107.818 146.296 105.634 147.426 103.518 148.666L100.66 221.819L110.37 254.807H176.109L188.706 203.131L171 141.518Z" fill="#B7B6E3"/>
<path d="M159.372 139.56C157.783 139.372 156.189 139.206 154.599 139.078C140.692 137.95 126.357 138.939 113.373 143.931C119.153 151.7 128.777 156.468 138.113 155.556C147.396 154.65 155.867 148.175 159.372 139.56Z" fill="#F5BFA6"/>
<g opacity="0.149994">
<g opacity="0.149994">
<path opacity="0.149994" d="M168.632 254.807H176.108L188.707 203.132L172.486 146.688L171.018 147.163C171.018 147.163 161.114 199.04 168.632 254.807Z" fill="#2C2355"/>
</g>
</g>
<path d="M103.52 148.669C108.795 183.769 111.09 219.317 110.371 254.804V254.807H52.0298C55.1538 233.933 58.5631 212.903 66.7458 193.472C74.3725 175.363 86.7031 158.527 103.518 148.667" fill="#1957DE"/>
<g opacity="0.149994">
<g opacity="0.149994">
<path opacity="0.149994" d="M82.071 254.807C82.435 234.913 82.8017 215.017 83.1657 195.124C83.1657 195.124 69.427 225.44 67.1577 254.807H82.071Z" fill="#2C2355"/>
</g>
</g>
<path d="M170.999 141.524C171.04 179.336 172.747 217.144 176.109 254.807H239.156C238.187 236.537 236.625 218.181 231.247 200.723C225.413 181.791 214.632 163.763 198.169 152.743C189.965 147.248 180.664 143.691 171 141.517" fill="#1957DE"/>
</svg>
