<svg width="294" height="225" viewBox="0 0 294 225" fill="none" xmlns="http://www.w3.org/2000/svg">
<rect y="4" width="294" height="221" fill="#E5E8F2"/>
<path d="M241.519 117.376L170.419 76.3277L170.42 23.509L241.519 64.5568V117.376ZM213.616 96.094L213.615 99.3151L230.31 108.954L230.31 105.732L213.616 96.094ZM220.172 95.3478V98.5689L235.53 107.435V104.214L220.172 95.3478ZM225.686 93.8933V97.1139L239.709 105.21V101.989L225.686 93.8933ZM204.83 91.0221V94.2427L212.947 98.9288V95.7082L204.83 91.0221ZM206.559 87.4884V90.7095L219.674 98.2812V95.0606L206.559 87.4884V87.4884ZM209.538 84.5699V87.791L224.895 96.6575V93.4363L209.538 84.5699ZM220.798 86.6462V89.8673L230.619 95.5375V92.3163L220.798 86.6462ZM229.005 86.8527V90.0739L235.53 93.8405V90.6199L229.005 86.8527V86.8527ZM200.872 88.7373V91.9579L204.111 93.8276V90.607L200.872 88.7373ZM225.686 80.3946V83.6152L239.709 91.711V88.4899L225.686 80.3946V80.3946ZM189.799 82.3444V85.565L200.289 91.621V88.3998L189.799 82.3444V82.3444ZM191.297 78.6777V81.8984L205.953 90.3596V87.139L191.297 78.6777ZM214.348 78.391V81.6116L228.3 89.6667V86.446L214.348 78.391ZM193.379 70.8163V74.037L220.061 89.4412V86.2206L193.379 70.8163ZM198.847 78.3975V81.6186L208.736 87.3281V84.107L198.847 78.3975ZM173.61 72.9976V76.2187L189.266 85.2574V82.0367L173.61 72.9976ZM220.172 72.6905V75.9116L235.53 84.778V81.5569L220.172 72.6905ZM207.369 69.8193V73.0399L224.895 83.1587V79.9376L207.369 69.8193ZM183.517 74.1858V77.4069L190.881 81.6584V78.4373L183.517 74.1858ZM198.159 69.0442V72.2649L213.747 81.2647V78.0441L198.159 69.0442ZM194.273 75.7578V78.9789L197.512 80.848V77.6274L194.273 75.7578V75.7578ZM224.3 70.542V73.7627L235.53 80.2462V77.0251L224.3 70.542ZM187.751 72.2051L187.751 75.4262L193.214 78.5797V75.359L187.751 72.2051ZM225.686 66.8107V70.0313L239.709 78.1277V74.9066L225.686 66.8107ZM209.257 66.3886L209.257 69.6092L219.146 75.3187V72.0981L209.257 66.3886V66.3886ZM173.119 63.7578V66.979L186.424 74.6602V71.4395L173.119 63.7578ZM184.374 65.6175V68.8382L192.712 73.6522V70.4315L184.374 65.6175V65.6175ZM207.017 60.5636V63.7847L223.712 73.4227V70.2021L207.017 60.5636ZM197.362 64.0635V67.2846L206.559 72.5939V69.3733L197.362 64.0635V64.0635ZM191.498 65.1989V68.4195L196.96 71.5735V68.3528L191.498 65.1989ZM209.186 57.2842V60.5054L224.543 69.3718V66.1507L209.186 57.2842ZM193.067 57.0418V60.2624L208.425 69.1289V65.9082L193.067 57.0418ZM191.297 60.5621V63.7832L196.76 66.9371L196.76 63.716L191.297 60.5621ZM198.231 55.4917V58.7124L206.348 63.3984L206.349 60.1778L198.231 55.4917ZM175.242 51.293V54.5141L190.599 63.3805V60.1594L175.242 51.293ZM197.362 50.4582V53.6788L208.425 60.0658V56.8447L197.362 50.4582V50.4582ZM194.274 53.2069V56.4276L197.512 58.2972V55.0761L194.274 53.2069V53.2069ZM183.517 51.5284V54.7491L188.98 57.903V54.6819L183.517 51.5284ZM183.201 46.814V50.0346L193.69 56.0906V52.87L183.201 46.814ZM191.298 46.9568V50.1775L196.76 53.3314V50.1108L191.298 46.9568ZM175.242 37.6877V40.9084L190.6 49.7748V46.5541L175.242 37.6877ZM178.717 44.225V47.4462L182.668 49.727V46.5064L178.717 44.225" fill="#E8E8F8"/>
<path d="M241.519 64.5568L170.42 23.5091L170.419 31.8299L241.519 72.8787V64.5568" fill="#B7B6E3"/>
<path d="M235.529 80.2461L224.3 73.7625V70.5419L235.529 77.025V80.2461Z" fill="#BCBCE5"/>
<path d="M182.668 49.7269L178.717 47.4461V44.225L182.668 46.5063V49.7269" fill="#BCBCE5"/>
<path d="M206.348 63.3984L198.231 58.7124V55.4918L206.348 60.1778L206.348 63.3984Z" fill="#BCBCE5"/>
<path d="M193.69 56.0906L183.201 50.0346V46.814L193.69 52.87V56.0906Z" fill="#BCBCE5"/>
<path d="M197.512 58.2972L194.274 56.4276V53.207L197.512 55.0761V58.2972" fill="#3968BB"/>
<path d="M223.712 73.4226L207.017 63.7846V60.5635L223.712 70.202V73.4226Z" fill="#F2D45B"/>
<path d="M189.266 85.2573L173.61 76.2187V72.9976L189.266 82.0367V85.2573Z" fill="#BCBCE5"/>
<path d="M212.946 98.9288L204.83 94.2428V91.0221L212.946 95.7082V98.9288Z" fill="#BCBCE5"/>
<path d="M200.288 91.621L189.799 85.565V82.3444L200.288 88.3998V91.621" fill="#BCBCE5"/>
<path d="M204.11 93.8275L200.872 91.9579V88.7372L204.11 90.6069V93.8275Z" fill="#3968BB"/>
<path d="M230.309 108.954L213.615 99.3151L213.615 96.094L230.31 105.732L230.309 108.954Z" fill="#1CD6F6"/>
<path d="M239.709 78.1277L225.686 70.0313V66.8107L239.709 74.9066V78.1277Z" fill="#1CD6F6"/>
<path d="M224.543 69.3717L209.186 60.5053V57.2842L224.543 66.1506V69.3717" fill="#BCBCE5"/>
<path d="M190.6 49.7747L175.242 40.9082V37.6876L190.6 46.554V49.7747Z" fill="#BCBCE5"/>
<path d="M208.425 60.0657L197.362 53.6787V50.4581L208.425 56.8446V60.0657" fill="#3968BB"/>
<path d="M196.76 53.3313L191.297 50.1774V46.9568L196.76 50.1107V53.3313Z" fill="#1CD6F6"/>
<path d="M239.709 105.21L225.686 97.114V93.8933L239.709 101.989V105.21Z" fill="#1CD6F6"/>
<path d="M186.424 74.6602L173.119 66.979V63.7578L186.424 71.4395V74.6602Z" fill="#BCBCE5"/>
<path d="M208.736 87.3281L198.846 81.6186V78.3975L208.736 84.107V87.3281Z" fill="#BCBCE5"/>
<path d="M197.512 80.848L194.273 78.9789V75.7578L197.512 77.6274V80.848" fill="#3968BB"/>
<path d="M224.895 96.6575L209.538 87.791V84.5699L224.895 93.4364V96.6575Z" fill="#F2D45B"/>
<path d="M193.214 78.5797L187.75 75.4263L187.751 72.2052L193.214 75.3591V78.5797Z" fill="#1CD6F6"/>
<path d="M239.709 91.7109L225.686 83.6151V80.3945L239.709 88.4898V91.7109" fill="#1CD6F6"/>
<path d="M224.895 83.1587L207.369 73.0399V69.8192L224.895 79.9376V83.1587Z" fill="#BCBCE5"/>
<path d="M190.599 63.3804L175.242 54.514V51.2928L190.599 60.1593V63.3804Z" fill="#BCBCE5"/>
<path d="M206.559 72.5939L197.362 67.2846V64.0634L206.559 69.3732V72.5939" fill="#1CD6F6"/>
<path d="M196.76 66.937L191.297 63.7831V60.562L196.76 63.7159L196.76 66.937Z" fill="#BCBCE5"/>
<path d="M235.529 84.778L220.172 75.9115V72.6904L235.529 81.5568V84.778Z" fill="#3968BB"/>
<path d="M208.425 69.1288L193.067 60.2623V57.0417L208.425 65.9082V69.1288Z" fill="#F2D45B"/>
<path d="M219.146 75.3186L209.256 69.6091L209.257 66.3885L219.146 72.098V75.3186" fill="#BCBCE5"/>
<path d="M188.98 57.903L183.517 54.749V51.5284L188.98 54.6818V57.903Z" fill="#3968BB"/>
<path d="M235.529 107.435L220.172 98.5689V95.3478L235.529 104.214V107.435Z" fill="#BCBCE5"/>
<path d="M205.953 90.3596L191.297 81.8984V78.6778L205.953 87.139V90.3596Z" fill="#BCBCE5"/>
<path d="M219.674 98.2811L206.558 90.7094V87.4883L219.674 95.0605V98.2811" fill="#3968BB"/>
<path d="M190.881 81.6584L183.517 77.4069V74.1858L190.881 78.4373V81.6584Z" fill="#F4D838"/>
<path d="M235.529 93.8406L229.005 90.0739V86.8528L235.529 90.62V93.8406" fill="#F2D45B"/>
<path d="M213.747 81.2646L198.158 72.2648V69.0442L213.747 78.044V81.2646Z" fill="#BCBCE5"/>
<path d="M228.3 89.6666L214.348 81.6116V78.391L228.3 86.446V89.6666Z" fill="#BCBCE5"/>
<path d="M196.961 71.5734L191.498 68.4194V65.1988L196.961 68.3527V71.5734Z" fill="#1CD6F6"/>
<path d="M230.619 95.5375L220.798 89.8673V86.6462L230.619 92.3164V95.5375Z" fill="#F2D45B"/>
<path d="M220.061 89.4412L193.379 74.0369V70.8163L220.061 86.2205V89.4412Z" fill="#BCBCE5"/>
<path d="M192.712 73.6521L184.374 68.8381V65.6175L192.712 70.4315V73.6521" fill="#F2D45B"/>
<path d="M102.277 76.1211L85.0676 66.1541L85.1224 52.3502L102.332 62.3177L102.277 76.1211" fill="#E8E8F8"/>
<path d="M86.1086 58.6874L90.4609 59.4585V61.7363L88.3137 61.0733L90.4609 63.0231V65.3009L86.1086 60.9658V58.6874" fill="#05D4F5"/>
<path d="M94.1754 58.8687L96.4846 60.2022L93.2236 69.6028L90.9137 68.2692L94.1754 58.8687" fill="#05D4F5"/>
<path d="M96.9379 66.7625L99.0853 67.2916L96.9379 65.4757L96.9384 63.1979L101.29 67.4524V69.7302L96.9379 69.0403V66.7625" fill="#05D4F5"/>
<path d="M105.373 60.2026L92.8148 52.9291L92.8551 38.7643L105.414 46.0379L105.373 60.2026Z" fill="#E8E8F8"/>
<path d="M97.9396 49.2989L99.2339 50.0491L99.4967 48.611L98.2035 47.8608L97.9396 49.2989ZM98.4494 46.5163L99.7431 47.2665L100.106 45.2789L101.556 46.1196L101.193 48.1072L102.003 48.5766V50.0635L100.947 49.4517L100.683 50.8898L102.003 51.6544V53.1418L100.437 52.2343L100.074 54.2214L98.6236 53.3807L98.9875 51.3936L97.6942 50.6434L97.3299 52.631L95.8803 51.7903L96.2442 49.8032L95.4338 49.3333V47.8464L96.4901 48.4587L96.7534 47.0206L95.4338 46.2555V44.7681L96.9998 45.6761L97.3637 43.6885L98.8132 44.5292L98.4494 46.5163Z" fill="#05D4F5"/>
<path d="M129.916 127.28L107.642 140.14L76.2776 122.031L98.5516 109.171L129.916 127.28Z" fill="#D8D5EE"/>
<path d="M125.583 135.415L109.018 150.885L71.29 137.418L87.8552 121.948L125.583 135.415Z" fill="#E4E3EE"/>
<path d="M84.568 149.413L84.5614 151.771L84.5345 153.558L84.5414 151.201L84.568 149.413Z" fill="#848487"/>
<path d="M72.3785 153.858L72.3719 156.216L70.3771 155.052L70.3837 152.693L72.3785 153.858" fill="#919DD6"/>
<path d="M92.7432 152.871L92.7365 155.23L90.538 156.479L90.5448 154.121L92.7432 152.871" fill="#B7B6E3"/>
<path d="M86.437 156.915L86.4302 159.273C86.4323 158.517 85.935 157.762 84.9379 157.186C82.9393 156.032 79.6955 156.035 77.6894 157.194C76.687 157.773 76.1843 158.531 76.182 159.288L76.1888 156.93C76.191 156.173 76.6936 155.415 77.696 154.836C79.7022 153.677 82.9462 153.674 84.9445 154.827C85.9418 155.403 86.4392 156.159 86.437 156.915" fill="#C4C3EC"/>
<path d="M71.2237 158.432L71.2168 160.79L68.4812 160.787L68.4878 158.429L71.2237 158.432" fill="#919DD6"/>
<path d="M94.2524 158.668L94.2459 161.026L91.2621 161.013L91.2689 158.655L94.2524 158.668" fill="#919DD6"/>
<path d="M94.3177 155.309L94.3112 157.667L94.2455 161.026L94.252 158.668L94.3177 155.309Z" fill="#858588"/>
<path d="M72.0744 159.719L72.0677 162.077C71.6946 161.664 71.4113 161.232 71.217 160.79L71.2239 158.432C71.4179 158.874 71.7012 159.306 72.0744 159.719" fill="#C4C3EC"/>
<path d="M91.2687 158.655L91.2619 161.013C91.0554 161.409 90.774 161.795 90.4229 162.164L90.4295 159.806C90.7809 159.437 91.0622 159.051 91.2687 158.655" fill="#C4C3EC"/>
<path d="M78.3023 162.685L78.2957 165.043C77.5327 164.913 76.7903 164.731 76.087 164.495L76.0937 162.137C76.7972 162.373 77.5393 162.555 78.3023 162.685Z" fill="#C4C3EC"/>
<path d="M86.3056 162.186L86.2988 164.544C85.6019 164.767 84.8663 164.941 84.1134 165.062L84.12 162.705C84.8731 162.582 85.6085 162.409 86.3056 162.186Z" fill="#C4C3EC"/>
<path d="M74.1793 163.236L74.1725 165.595L70.0782 163.219L70.0849 160.861L74.1793 163.236" fill="#919DD6"/>
<path d="M76.0937 162.137L76.0871 164.495L74.1724 165.595L74.1792 163.236L76.0937 162.137" fill="#B7B6E3"/>
<path d="M92.4476 160.971L92.4408 163.329L88.317 165.71L88.3236 163.352L92.4476 160.971" fill="#B7B6E3"/>
<path d="M88.3237 163.352L88.317 165.71L86.2987 164.544L86.3055 162.186L88.3237 163.352" fill="#919DD6"/>
<path d="M84.1199 162.705L84.1133 165.062L84.1038 166.649L84.1106 164.29L84.1199 162.705" fill="#848487"/>
<path d="M77.683 159.019C79.6788 160.171 82.9227 160.168 84.9278 159.011C86.9341 157.853 86.9407 155.98 84.9447 154.827C82.9464 153.674 79.7025 153.677 77.6963 154.836C75.6923 155.994 75.6857 157.866 77.683 159.019V159.019ZM88.3238 163.352L86.3057 162.186C85.6086 162.409 84.8732 162.582 84.1201 162.705L84.1108 164.29L78.2918 164.294L78.3025 162.685C77.5395 162.555 76.7973 162.373 76.0938 162.137L74.1793 163.236L70.0849 160.861L72.0743 159.719C71.7011 159.306 71.4178 158.874 71.2238 158.432L68.4879 158.429L68.5256 155.07L71.4209 155.074C71.6591 154.652 71.9784 154.246 72.3787 153.858L70.3839 152.693L74.5289 150.326L76.6443 151.561C77.3146 151.366 78.012 151.216 78.7247 151.109L78.7505 149.399L84.5681 149.413L84.5414 151.2C85.2231 151.326 85.887 151.496 86.5228 151.705L88.6724 150.483L92.7433 152.871L90.5449 154.121C90.8881 154.499 91.1543 154.894 91.3468 155.297L94.318 155.309L94.2523 158.668L91.2689 158.655C91.0623 159.051 90.781 159.437 90.4296 159.805L92.4477 160.971L88.3238 163.352" fill="#DAD9E8"/>
<path d="M84.1106 164.29L84.1038 166.649L78.285 166.652L78.2916 164.294L84.1106 164.29Z" fill="#919DD6"/>
<path d="M104.089 163.966L104.084 165.659L104.065 166.942L104.07 165.249L104.089 163.966Z" fill="#848487"/>
<path d="M95.3397 167.157L95.3347 168.849L93.9026 168.013L93.9076 166.32L95.3397 167.157" fill="#919DD6"/>
<path d="M109.958 166.449L109.953 168.141L108.375 169.038L108.379 167.345L109.958 166.449Z" fill="#B7B6E3"/>
<path d="M105.431 169.351L105.426 171.044C105.427 170.501 105.071 169.959 104.355 169.546C102.92 168.717 100.592 168.72 99.1515 169.552C98.4322 169.967 98.0713 170.511 98.0698 171.054L98.0743 169.362C98.0758 168.818 98.4367 168.274 99.1565 167.859C100.597 167.027 102.925 167.024 104.36 167.853C105.076 168.266 105.432 168.808 105.431 169.351Z" fill="#C4C3EC"/>
<path d="M94.5101 170.44L94.5056 172.133L92.5416 172.13L92.5463 170.438L94.5101 170.44" fill="#919DD6"/>
<path d="M111.041 170.609L111.036 172.302L108.894 172.292L108.899 170.6L111.041 170.609Z" fill="#919DD6"/>
<path d="M111.088 168.198L111.083 169.891L111.036 172.302L111.041 170.609L111.088 168.198Z" fill="#858588"/>
<path d="M95.1205 171.364L95.116 173.057C94.8482 172.76 94.6446 172.45 94.5057 172.133L94.5102 170.44C94.6496 170.757 94.8527 171.067 95.1205 171.364Z" fill="#C4C3EC"/>
<path d="M108.899 170.6L108.895 172.292C108.746 172.577 108.544 172.854 108.292 173.119L108.297 171.426C108.549 171.161 108.751 170.885 108.899 170.6Z" fill="#C4C3EC"/>
<path d="M99.5912 173.492L99.5863 175.185C99.0387 175.092 98.5061 174.961 98.0009 174.792L98.0058 173.099C98.5106 173.269 99.0437 173.399 99.5912 173.492Z" fill="#C4C3EC"/>
<path d="M105.337 173.135L105.332 174.827C104.831 174.987 104.304 175.112 103.763 175.2L103.768 173.507C104.308 173.419 104.836 173.295 105.337 173.135Z" fill="#C4C3EC"/>
<path d="M96.6316 173.889L96.6266 175.582L93.6877 173.876L93.6927 172.184L96.6316 173.889" fill="#919DD6"/>
<path d="M98.0059 173.099L98.001 174.792L96.6266 175.582L96.6316 173.889L98.0059 173.099Z" fill="#B7B6E3"/>
<path d="M109.745 172.262L109.741 173.955L106.78 175.664L106.785 173.971L109.745 172.262Z" fill="#B7B6E3"/>
<path d="M106.785 173.971L106.78 175.664L105.332 174.827L105.336 173.135L106.785 173.971Z" fill="#919DD6"/>
<path d="M103.768 173.507L103.763 175.2L103.756 176.338L103.761 174.645L103.768 173.507Z" fill="#848487"/>
<path d="M99.1469 170.862C100.579 171.689 102.908 171.686 104.347 170.856C105.787 170.024 105.792 168.68 104.36 167.853C102.925 167.024 100.596 167.027 99.1564 167.859C97.7178 168.689 97.7128 170.034 99.1469 170.862ZM106.785 173.971L105.336 173.135C104.836 173.295 104.308 173.419 103.768 173.507L103.761 174.645L99.5839 174.648L99.5914 173.492C99.0439 173.399 98.5107 173.269 98.006 173.099L96.6316 173.889L93.6927 172.184L95.1204 171.364C94.8526 171.067 94.6495 170.757 94.5101 170.44L92.5463 170.438L92.5733 168.027L94.6515 168.029C94.8227 167.727 95.0517 167.435 95.3394 167.157L93.9073 166.32L96.8825 164.621L98.4012 165.508C98.8821 165.368 99.3828 165.26 99.8946 165.183L99.913 163.956L104.089 163.966L104.07 165.249C104.559 165.339 105.036 165.461 105.492 165.611L107.035 164.734L109.958 166.449L108.379 167.345C108.626 167.617 108.817 167.9 108.955 168.189L111.088 168.198L111.041 170.609L108.899 170.6C108.751 170.885 108.549 171.161 108.297 171.426L109.745 172.262L106.785 173.971" fill="#DAD9E8"/>
<path d="M103.761 174.645L103.756 176.338L99.5789 176.341L99.5838 174.648L103.761 174.645Z" fill="#919DD6"/>
<path d="M85.85 168.716L85.8455 170.32L85.8309 171.282L85.8354 169.677L85.85 168.716Z" fill="#848487"/>
<path d="M79.2915 171.107L79.287 172.711L78.2129 172.085L78.2176 170.48L79.2915 171.107Z" fill="#919DD6"/>
<path d="M90.2486 170.576L90.2438 172.181L89.0612 172.853L89.0656 171.248L90.2486 170.576Z" fill="#B7B6E3"/>
<path d="M78.6687 173.568L78.6643 175.172L77.1929 175.17L77.1974 173.566L78.6687 173.568Z" fill="#919DD6"/>
<path d="M91.0595 173.695L91.0549 175.3L89.45 175.292L89.4544 173.687L91.0595 173.695" fill="#919DD6"/>
<path d="M91.0953 171.888L91.0908 173.492L91.0551 175.3L91.0597 173.695L91.0953 171.888Z" fill="#858588"/>
<path d="M79.1263 174.26L79.1219 175.865C78.9218 175.642 78.7703 175.41 78.6646 175.172L78.669 173.568C78.7748 173.805 78.9262 174.038 79.1263 174.26Z" fill="#C4C3EC"/>
<path d="M89.4545 173.688L89.45 175.292C89.3384 175.506 89.1875 175.713 88.9983 175.912L89.0028 174.307C89.192 174.109 89.3429 173.901 89.4545 173.688" fill="#C4C3EC"/>
<path d="M82.478 175.856L82.4735 177.46C82.0631 177.39 81.6635 177.292 81.2853 177.165L81.29 175.561C81.668 175.688 82.0677 175.786 82.478 175.856Z" fill="#C4C3EC"/>
<path d="M86.7839 175.588L86.7794 177.193C86.4051 177.312 86.009 177.405 85.6034 177.471L85.6081 175.866C86.0135 175.801 86.4096 175.708 86.7839 175.588" fill="#C4C3EC"/>
<path d="M81.2897 175.561L81.285 177.166L80.2555 177.757L80.2599 176.153L81.2897 175.561Z" fill="#B7B6E3"/>
<path d="M80.26 176.153L80.2556 177.757L78.0521 176.48L78.0566 174.875L80.26 176.153Z" fill="#919DD6"/>
<path d="M90.0885 174.934L90.084 176.538L87.8657 177.82L87.8702 176.215L90.0885 174.934" fill="#B7B6E3"/>
<path d="M87.8702 176.215L87.8657 177.82L86.7792 177.192L86.7837 175.588L87.8702 176.215Z" fill="#919DD6"/>
<path d="M85.6082 175.866L85.6035 177.471L85.5992 178.325L85.6039 176.721L85.6082 175.866" fill="#848487"/>
<path d="M88.0575 169.291L90.2485 170.577L89.0655 171.249C89.2496 171.452 89.3925 171.664 89.4968 171.881L91.0949 171.888L91.0593 173.695L89.4542 173.688C89.3426 173.901 89.1917 174.109 89.0025 174.307L90.0883 174.934L87.87 176.215L86.7835 175.588C86.4092 175.708 86.0131 175.801 85.6077 175.866L85.6034 176.721L82.4726 176.722L82.4777 175.856C82.0674 175.786 81.6677 175.688 81.2897 175.561L80.2599 176.153L78.0565 174.875L79.1261 174.261C78.926 174.038 78.7745 173.806 78.6688 173.568L77.1974 173.566L77.2172 171.759L78.7755 171.761C78.9044 171.535 79.0761 171.316 79.2911 171.107L78.2172 170.48L80.4469 169.207L81.5864 169.871C81.9459 169.766 82.322 169.686 82.705 169.628L82.7198 168.708L85.8496 168.716L85.835 169.677C86.2019 169.745 86.5591 169.836 86.9013 169.949L88.0575 169.291" fill="#DAD9E8"/>
<path d="M85.6036 176.721L85.5989 178.325L82.4684 178.326L82.4728 176.722L85.6036 176.721" fill="#919DD6"/>
<path d="M126.615 103.143L126.606 106.015L126.579 107.95L126.587 105.078L126.615 103.143Z" fill="#848487"/>
<path d="M113.41 107.957L113.401 110.829L111.241 109.567L111.249 106.696L113.41 107.957Z" fill="#919DD6"/>
<path d="M135.473 106.89L135.465 109.762L133.084 111.114L133.093 108.243L135.473 106.89" fill="#B7B6E3"/>
<path d="M130.041 111.299L130.032 114.171C130.035 113.101 129.332 112.032 127.921 111.217C125.097 109.587 120.512 109.593 117.674 111.23C116.255 112.049 115.544 113.122 115.541 114.194L115.549 111.322C115.552 110.25 116.263 109.177 117.682 108.358C120.52 106.721 125.105 106.715 127.929 108.346C129.34 109.161 130.044 110.229 130.041 111.299" fill="#C4C3EC"/>
<path d="M112.158 112.913L112.15 115.785L109.186 115.782L109.194 112.91L112.158 112.913Z" fill="#919DD6"/>
<path d="M137.106 113.168L137.098 116.04L133.868 116.027L133.877 113.155L137.106 113.168" fill="#919DD6"/>
<path d="M137.18 109.529L137.172 112.401L137.099 116.04L137.107 113.168L137.18 109.529Z" fill="#858588"/>
<path d="M113.079 114.308L113.071 117.179C112.666 116.732 112.36 116.263 112.15 115.785L112.158 112.913C112.368 113.392 112.674 113.86 113.079 114.308Z" fill="#C4C3EC"/>
<path d="M133.877 113.155L133.868 116.027C133.644 116.456 133.338 116.874 132.958 117.273L132.966 114.402C133.346 114.002 133.652 113.584 133.877 113.155Z" fill="#C4C3EC"/>
<path d="M119.828 117.52L119.819 120.392C118.992 120.251 118.187 120.053 117.425 119.8L117.433 116.928C118.195 117.182 119 117.379 119.828 117.52" fill="#C4C3EC"/>
<path d="M128.499 116.98L128.491 119.852C127.732 120.093 126.939 120.28 126.121 120.413L126.129 117.541C126.947 117.408 127.74 117.222 128.499 116.98Z" fill="#C4C3EC"/>
<path d="M115.359 118.118L115.35 120.989L110.916 118.416L110.925 115.544L115.359 118.118Z" fill="#919DD6"/>
<path d="M117.433 116.928L117.425 119.8L115.35 120.989L115.359 118.118L117.433 116.928" fill="#B7B6E3"/>
<path d="M135.152 115.664L135.144 118.536L130.679 121.115L130.687 118.243L135.152 115.664Z" fill="#B7B6E3"/>
<path d="M130.687 118.243L130.679 121.115L128.491 119.852L128.499 116.98L130.687 118.243Z" fill="#919DD6"/>
<path d="M126.129 117.541L126.121 120.413L126.111 122.131L126.12 119.26L126.129 117.541Z" fill="#848487"/>
<path d="M117.66 114.276C120.483 115.905 125.072 115.898 127.907 114.261C130.744 112.624 130.753 109.976 127.929 108.346C125.105 106.715 120.52 106.721 117.682 108.358C114.847 109.995 114.836 112.645 117.66 114.276ZM130.687 118.243L128.499 116.98C127.74 117.222 126.947 117.408 126.129 117.541L126.119 119.259L119.816 119.264L119.827 117.52C119 117.379 118.195 117.182 117.433 116.928L115.359 118.118L110.925 115.544L113.079 114.308C112.674 113.86 112.368 113.392 112.158 112.913L109.194 112.91L109.233 109.271L112.369 109.274C112.628 108.82 112.975 108.376 113.41 107.957L111.249 106.696L115.737 104.13L118.033 105.469C118.757 105.258 119.512 105.095 120.284 104.978L120.313 103.127L126.615 103.143L126.586 105.078C127.324 105.214 128.044 105.397 128.734 105.625L131.061 104.302L135.473 106.89L133.093 108.243C133.461 108.652 133.753 109.078 133.96 109.515L137.18 109.529L137.106 113.168L133.877 113.155C133.652 113.584 133.346 114.002 132.966 114.402L135.152 115.664L130.687 118.243" fill="#DAD9E8"/>
<path d="M126.119 119.26L126.111 122.131L119.808 122.136L119.816 119.264L126.119 119.26Z" fill="#919DD6"/>
<path d="M131.103 124.061L130.26 123.98L130.373 123.915L131.216 123.995L131.103 124.061Z" fill="#E4E3EE"/>
<path d="M131.216 123.995L130.373 123.915C130.605 123.78 130.85 123.656 131.106 123.543L131.829 123.685C131.615 123.779 131.41 123.883 131.216 123.995Z" fill="#E4E3EE"/>
<path d="M131.829 123.685L131.106 123.543C132.916 122.744 135.296 122.483 137.521 122.863C147.564 124.577 156.155 127.495 162.984 131.438L162.149 131.518C155.465 127.658 146.772 124.828 137.189 123.117C135.329 122.799 133.34 123.017 131.829 123.685" fill="#E4E3EE"/>
<path d="M178.017 147.062L178.012 148.83C178.008 149.917 177.277 150.978 175.916 151.769L175.921 150C177.282 149.21 178.014 148.148 178.017 147.062Z" fill="#B7B6E3"/>
<path d="M162.149 131.518L162.984 131.438C166.058 133.212 168.775 135.195 171.107 137.369L170.087 137.38C167.809 135.23 165.158 133.255 162.149 131.518" fill="#E4E3EE"/>
<path d="M170.087 137.38L171.107 137.369C173.855 139.931 176.068 142.759 177.698 145.824C178.48 147.302 177.799 148.909 175.921 150L175.081 149.108C176.649 148.197 177.218 146.853 176.565 145.619C174.939 142.695 172.772 139.915 170.087 137.38" fill="#E4E3EE"/>
<path d="M175.921 150L175.916 151.769L175.758 151.861L175.763 150.092L175.921 150Z" fill="#B7B6E3"/>
<path d="M175.081 149.108L175.921 150L175.763 150.092L174.922 149.2L175.081 149.108" fill="#E4E3EE"/>
<path d="M162.149 131.518C168.704 135.303 173.56 140.214 176.565 145.619C177.218 146.853 176.649 148.197 175.081 149.108L174.922 149.2C172.483 150.62 168.669 150.502 166.401 149.192C165.862 148.881 165.409 148.502 165.082 148.058C162.034 143.753 157.749 140.216 152.449 137.156C147.045 134.036 140.781 131.528 133.155 129.77C132.368 129.581 131.698 129.316 131.148 128.999C128.881 127.689 128.656 125.481 131.103 124.061L131.216 123.995C132.774 123.09 135.065 122.754 137.189 123.117C146.772 124.828 155.465 127.659 162.149 131.518" fill="#EBEBF1"/>
<path d="M175.763 150.092L175.758 151.861C172.83 153.562 168.268 153.418 165.557 151.853C164.913 151.481 164.372 151.028 163.984 150.5C160.966 146.4 156.796 142.813 151.606 139.817C146.314 136.762 139.963 134.321 132.698 132.579C131.764 132.355 130.963 132.039 130.305 131.66C128.909 130.854 128.16 129.761 128.163 128.658L128.168 126.889C128.165 127.992 128.914 129.085 130.31 129.891C130.968 130.271 131.769 130.587 132.703 130.811C139.968 132.552 146.32 134.993 151.611 138.048C156.801 141.044 160.971 144.631 163.989 148.731C164.377 149.258 164.918 149.712 165.562 150.084C168.273 151.649 172.836 151.793 175.763 150.092Z" fill="#B7B6E3"/>
<path d="M174.922 149.2L175.763 150.092C175.189 150.425 174.553 150.688 173.88 150.883L173.352 149.86C173.913 149.698 174.444 149.479 174.922 149.2" fill="#E4E3EE"/>
<path d="M173.352 149.86L173.88 150.883C171.207 151.656 167.959 151.363 165.777 150.203L166.58 149.292C168.406 150.262 171.122 150.506 173.352 149.86Z" fill="#E4E3EE"/>
<path d="M166.58 149.292L165.777 150.203C165.704 150.165 165.633 150.125 165.563 150.084C164.918 149.712 164.377 149.259 163.989 148.731C160.972 144.631 156.801 141.044 151.611 138.048C151.009 137.7 150.392 137.36 149.762 137.028L150.567 136.114C151.207 136.453 151.833 136.801 152.449 137.156C157.749 140.216 162.034 143.753 165.082 148.058C165.409 148.502 165.862 148.881 166.401 149.192C166.46 149.226 166.519 149.26 166.58 149.292Z" fill="#E4E3EE"/>
<path d="M150.568 136.114L149.762 137.028C144.861 134.446 139.141 132.354 132.703 130.811C131.871 130.611 131.144 130.338 130.53 130.013L131.332 129.101C131.845 129.373 132.454 129.602 133.155 129.77C139.912 131.328 145.6 133.474 150.568 136.114Z" fill="#E4E3EE"/>
<path d="M131.332 129.101L130.53 130.013C130.455 129.973 130.382 129.932 130.31 129.891C127.601 128.327 127.328 125.685 130.26 123.98L131.103 124.061C128.656 125.481 128.881 127.689 131.148 128.999C131.208 129.033 131.269 129.067 131.332 129.101" fill="#E4E3EE"/>
<path d="M165.301 136.655L167.466 135.392L162.065 104.764L159.898 106.026L165.301 136.655" fill="#042F8F"/>
<path d="M159.898 106.026L162.064 104.764L146.675 95.9196L144.51 97.1825L159.898 106.026" fill="#02196A"/>
<path d="M144.51 97.1826L149.912 127.81L165.301 136.655L159.898 106.026L144.51 97.1826" fill="#042F8F"/>
<path d="M108.777 28.6744L111.426 27.1502C111.831 26.9153 112.392 26.9481 113.011 27.306L110.362 28.8297C109.743 28.4723 109.182 28.4395 108.777 28.6744" fill="#DAD9E8"/>
<path d="M108.777 28.6744L111.426 27.1502C111.831 26.9153 112.392 26.9481 113.011 27.306L110.362 28.8297C109.743 28.4723 109.182 28.4395 108.777 28.6744" fill="#DAD9E8"/>
<path d="M209.254 148.813L206.605 150.337C207.004 150.104 207.252 149.611 207.254 148.909L209.903 147.385C209.901 148.087 209.653 148.581 209.254 148.813Z" fill="#B7B6E3"/>
<path d="M207.254 148.909L209.903 147.385C209.901 148.087 209.653 148.581 209.254 148.813L206.605 150.337C207.004 150.104 207.252 149.611 207.254 148.909Z" fill="#B7B6E3"/>
<path d="M207.428 87.4286L210.077 85.9049L209.903 147.385L207.254 148.909L207.428 87.4286Z" fill="#B7B6E3"/>
<path d="M110.362 28.8297L113.011 27.306L207.859 82.066L205.21 83.5902L110.362 28.8297" fill="#DAD9E8"/>
<path d="M205.21 83.5902L207.859 82.066C209.089 82.7759 210.081 84.4957 210.077 85.9049L207.428 87.4286C207.432 86.0194 206.439 84.3001 205.21 83.5902Z" fill="#DAD9E8"/>
<path d="M205.21 83.5902L207.859 82.066C209.089 82.7759 210.081 84.4957 210.077 85.9049L207.428 87.4286C207.432 86.0194 206.439 84.3001 205.21 83.5902Z" fill="#DAD9E8"/>
<path d="M205.21 83.5902C206.439 84.3 207.432 86.0193 207.428 87.4285L207.254 148.909C207.25 150.322 206.25 150.891 205.021 150.181L110.173 95.4208C108.944 94.711 107.951 92.9917 107.955 91.579L108.129 30.0985C108.133 28.6892 109.132 28.1198 110.362 28.8296L205.21 83.5902" fill="#EBEBF1"/>
<path d="M205.606 87.4237L205.438 147.399L205.435 148.313L111.086 93.8415C110.423 93.4622 109.774 92.3437 109.778 91.5856L109.949 30.6959L110.718 31.1405L204.298 85.1678C204.961 85.5506 205.61 86.6656 205.606 87.4237" fill="#DAD9E8"/>
<path d="M205.606 87.4236L205.438 147.399L111.855 93.3675C111.196 92.9847 110.547 91.8662 110.551 91.1081L110.718 31.1403L204.298 85.1676C204.961 85.5504 205.61 86.6654 205.606 87.4236Z" fill="url(#paint0_linear)"/>
<path d="M121.345 143.644L127.657 138.398L136.669 143.447L121.345 143.644Z" fill="#C8BDD9"/>
<path d="M115.01 148.291L115.138 148.804L148.918 168.099L148.79 167.586L115.01 148.291" fill="#EBEBF1"/>
<path d="M148.79 167.586L148.918 168.099L162.124 157.487L161.987 156.22L148.79 167.586" fill="#B7B6E3"/>
<path d="M115.01 148.291L148.79 167.586L161.987 156.22L128.207 136.925L115.01 148.291" fill="#DAD9E8"/>
<path d="M126.967 138.267L127.052 138.609L128.855 139.638L128.77 139.296L126.967 138.267Z" fill="#C4C3EC"/>
<path d="M128.77 139.296L128.855 139.638L129.812 138.814L129.727 138.472L128.77 139.296Z" fill="#B7B6E3"/>
<path d="M126.967 138.267L128.77 139.297L129.727 138.472L127.925 137.442L126.967 138.267Z" fill="#EBEBF1"/>
<path d="M124.554 140.503L124.64 140.845L126.443 141.874L126.357 141.533L124.554 140.503Z" fill="#C4C3EC"/>
<path d="M126.358 141.533L126.443 141.874L128.197 140.363L128.112 140.021L126.358 141.533Z" fill="#B7B6E3"/>
<path d="M124.554 140.503L126.357 141.533L128.112 140.021L126.309 138.991L124.554 140.503Z" fill="#EBEBF1"/>
<path d="M129.241 139.566L129.326 139.907L131.129 140.937L131.044 140.596L129.241 139.566Z" fill="#C4C3EC"/>
<path d="M131.044 140.596L131.129 140.937L132.086 140.113L132.001 139.771L131.044 140.596Z" fill="#B7B6E3"/>
<path d="M129.241 139.566L131.044 140.596L132.001 139.771L130.198 138.741L129.241 139.566Z" fill="#EBEBF1"/>
<path d="M126.74 141.751L126.825 142.093L128.628 143.123L128.543 142.781L126.74 141.751Z" fill="#C4C3EC"/>
<path d="M128.543 142.781L128.628 143.123L130.383 141.612L130.298 141.27L128.543 142.781Z" fill="#B7B6E3"/>
<path d="M126.74 141.751L128.543 142.781L130.297 141.27L128.494 140.24L126.74 141.751Z" fill="#EBEBF1"/>
<path d="M131.515 140.865L131.6 141.207L133.403 142.236L133.318 141.894L131.515 140.865Z" fill="#C4C3EC"/>
<path d="M133.318 141.894L133.403 142.236L134.36 141.412L134.275 141.07L133.318 141.894Z" fill="#B7B6E3"/>
<path d="M131.515 140.865L133.318 141.895L134.275 141.07L132.472 140.04L131.515 140.865Z" fill="#EBEBF1"/>
<path d="M128.926 143L129.011 143.341L130.814 144.371L130.728 144.029L128.926 143Z" fill="#C4C3EC"/>
<path d="M130.729 144.029L130.814 144.371L132.568 142.86L132.483 142.518L130.729 144.029Z" fill="#B7B6E3"/>
<path d="M128.926 143L130.728 144.029L132.483 142.518L130.68 141.488L128.926 143Z" fill="#EBEBF1"/>
<path d="M133.789 142.164L133.874 142.505L135.677 143.535L135.592 143.194L133.789 142.164Z" fill="#C4C3EC"/>
<path d="M135.592 143.194L135.677 143.535L136.634 142.711L136.549 142.369L135.592 143.194Z" fill="#B7B6E3"/>
<path d="M133.789 142.164L135.592 143.194L136.549 142.369L134.746 141.339L133.789 142.164Z" fill="#EBEBF1"/>
<path d="M131.111 144.247L131.196 144.589L132.999 145.619L132.914 145.277L131.111 144.247Z" fill="#C4C3EC"/>
<path d="M132.914 145.277L132.999 145.619L134.753 144.108L134.668 143.767L132.914 145.277Z" fill="#B7B6E3"/>
<path d="M131.111 144.247L132.914 145.277L134.668 143.767L132.865 142.737L131.111 144.247Z" fill="#EBEBF1"/>
<path d="M133.296 145.496L133.381 145.838L135.184 146.867L135.099 146.526L133.296 145.496Z" fill="#C4C3EC"/>
<path d="M135.099 146.526L135.184 146.867L136.939 145.357L136.853 145.015L135.099 146.526Z" fill="#B7B6E3"/>
<path d="M133.296 145.496L135.099 146.526L136.853 145.015L135.05 143.985L133.296 145.496Z" fill="#EBEBF1"/>
<path d="M137.199 144.112L137.284 144.453L139.087 145.484L139.002 145.142L137.199 144.112Z" fill="#C4C3EC"/>
<path d="M139.002 145.142L139.087 145.484L140.044 144.659L139.959 144.317L139.002 145.142Z" fill="#B7B6E3"/>
<path d="M137.199 144.112L139.002 145.141L139.959 144.317L138.156 143.287L137.199 144.112Z" fill="#EBEBF1"/>
<path d="M135.481 146.744L135.566 147.086L137.37 148.116L137.284 147.774L135.481 146.744Z" fill="#C4C3EC"/>
<path d="M137.284 147.774L137.37 148.116L139.124 146.605L139.039 146.263L137.284 147.774Z" fill="#B7B6E3"/>
<path d="M135.481 146.744L137.284 147.774L139.039 146.263L137.236 145.233L135.481 146.744Z" fill="#EBEBF1"/>
<path d="M139.473 145.41L139.558 145.752L141.361 146.782L141.276 146.44L139.473 145.41Z" fill="#C4C3EC"/>
<path d="M141.276 146.44L141.361 146.782L142.318 145.957L142.233 145.616L141.276 146.44Z" fill="#B7B6E3"/>
<path d="M139.473 145.41L141.276 146.44L142.233 145.616L140.43 144.586L139.473 145.41Z" fill="#EBEBF1"/>
<path d="M137.667 147.992L137.752 148.334L139.555 149.364L139.47 149.022L137.667 147.992Z" fill="#C4C3EC"/>
<path d="M139.47 149.022L139.555 149.364L141.309 147.853L141.224 147.511L139.47 149.022Z" fill="#B7B6E3"/>
<path d="M137.667 147.992L139.47 149.022L141.224 147.511L139.421 146.481L137.667 147.992Z" fill="#EBEBF1"/>
<path d="M141.747 146.709L141.832 147.051L143.635 148.081L143.55 147.739L141.747 146.709Z" fill="#C4C3EC"/>
<path d="M143.55 147.739L143.635 148.081L144.593 147.256L144.507 146.915L143.55 147.739Z" fill="#B7B6E3"/>
<path d="M141.747 146.71L143.55 147.74L144.507 146.915L142.704 145.885L141.747 146.71Z" fill="#EBEBF1"/>
<path d="M139.852 149.241L139.938 149.583L141.74 150.613L141.655 150.271L139.852 149.241Z" fill="#C4C3EC"/>
<path d="M141.655 150.271L141.74 150.613L143.494 149.101L143.409 148.76L141.655 150.271Z" fill="#B7B6E3"/>
<path d="M139.852 149.241L141.655 150.271L143.41 148.76L141.607 147.73L139.852 149.241Z" fill="#EBEBF1"/>
<path d="M144.02 148.008L144.106 148.35L145.908 149.38L145.824 149.038L144.02 148.008" fill="#C4C3EC"/>
<path d="M145.824 149.038L145.909 149.38L146.866 148.556L146.781 148.214L145.824 149.038Z" fill="#B7B6E3"/>
<path d="M144.02 148.008L145.824 149.038L146.781 148.214L144.978 147.184L144.02 148.008" fill="#EBEBF1"/>
<path d="M142.038 150.489L142.123 150.831L143.926 151.86L143.841 151.519L142.038 150.489Z" fill="#C4C3EC"/>
<path d="M143.84 151.519L143.926 151.86L145.68 150.35L145.595 150.008L143.84 151.519Z" fill="#B7B6E3"/>
<path d="M142.038 150.489L143.841 151.519L145.595 150.008L143.792 148.978L142.038 150.489Z" fill="#EBEBF1"/>
<path d="M147.431 149.956L147.516 150.298L149.319 151.328L149.234 150.986L147.431 149.956Z" fill="#C4C3EC"/>
<path d="M149.234 150.986L149.319 151.328L150.276 150.504L150.191 150.162L149.234 150.986Z" fill="#B7B6E3"/>
<path d="M147.431 149.956L149.234 150.986L150.191 150.162L148.388 149.132L147.431 149.956Z" fill="#EBEBF1"/>
<path d="M144.223 151.738L144.308 152.079L146.111 153.109L146.026 152.767L144.223 151.738Z" fill="#C4C3EC"/>
<path d="M146.026 152.767L146.111 153.109L147.865 151.598L147.78 151.256L146.026 152.767Z" fill="#B7B6E3"/>
<path d="M144.223 151.738L146.026 152.767L147.78 151.256L145.977 150.226L144.223 151.738" fill="#EBEBF1"/>
<path d="M149.705 151.255L149.79 151.597L151.593 152.626L151.508 152.285L149.705 151.255Z" fill="#C4C3EC"/>
<path d="M151.507 152.285L151.593 152.626L152.55 151.802L152.465 151.46L151.507 152.285Z" fill="#B7B6E3"/>
<path d="M149.705 151.255L151.508 152.285L152.465 151.46L150.662 150.431L149.705 151.255Z" fill="#EBEBF1"/>
<path d="M146.408 152.986L146.494 153.327L148.297 154.357L148.211 154.015L146.408 152.986" fill="#C4C3EC"/>
<path d="M148.212 154.015L148.297 154.357L150.051 152.847L149.966 152.505L148.212 154.015Z" fill="#B7B6E3"/>
<path d="M146.408 152.986L148.211 154.015L149.966 152.505L148.163 151.475L146.408 152.986Z" fill="#EBEBF1"/>
<path d="M151.979 152.554L152.064 152.896L153.867 153.926L153.782 153.584L151.979 152.554" fill="#C4C3EC"/>
<path d="M153.781 153.584L153.867 153.926L154.824 153.101L154.738 152.759L153.781 153.584Z" fill="#B7B6E3"/>
<path d="M151.979 152.554L153.782 153.584L154.739 152.759L152.936 151.73L151.979 152.554Z" fill="#EBEBF1"/>
<path d="M148.594 154.234L148.679 154.576L150.482 155.606L150.397 155.264L148.594 154.234Z" fill="#C4C3EC"/>
<path d="M150.397 155.264L150.482 155.606L152.236 154.094L152.151 153.753L150.397 155.264Z" fill="#B7B6E3"/>
<path d="M148.594 154.234L150.397 155.264L152.151 153.753L150.348 152.723L148.594 154.234Z" fill="#EBEBF1"/>
<path d="M154.253 153.853L154.338 154.195L156.141 155.224L156.056 154.883L154.253 153.853Z" fill="#C4C3EC"/>
<path d="M156.056 154.883L156.141 155.224L157.098 154.4L157.013 154.059L156.056 154.883Z" fill="#B7B6E3"/>
<path d="M154.253 153.853L156.056 154.883L157.013 154.059L155.21 153.028L154.253 153.853Z" fill="#EBEBF1"/>
<path d="M150.779 155.482L150.864 155.824L152.667 156.854L152.582 156.512L150.779 155.482" fill="#C4C3EC"/>
<path d="M152.582 156.512L152.667 156.854L154.422 155.343L154.336 155.001L152.582 156.512Z" fill="#B7B6E3"/>
<path d="M150.779 155.482L152.582 156.512L154.336 155.001L152.533 153.972L150.779 155.482Z" fill="#EBEBF1"/>
<path d="M152.964 156.731L153.049 157.072L154.852 158.102L154.767 157.761L152.964 156.731Z" fill="#C4C3EC"/>
<path d="M154.767 157.761L154.852 158.102L156.606 156.591L156.522 156.25L154.767 157.761Z" fill="#B7B6E3"/>
<path d="M152.964 156.731L154.767 157.761L156.521 156.25L154.718 155.219L152.964 156.731Z" fill="#EBEBF1"/>
<path d="M157.672 155.806L157.757 156.148L159.56 157.178L159.475 156.836L157.672 155.806Z" fill="#C4C3EC"/>
<path d="M159.475 156.836L159.56 157.178L160.518 156.353L160.432 156.012L159.475 156.836Z" fill="#B7B6E3"/>
<path d="M157.672 155.806L159.475 156.836L160.432 156.012L158.629 154.982L157.672 155.806Z" fill="#EBEBF1"/>
<path d="M155.15 157.979L155.235 158.321L157.038 159.351L156.953 159.009L155.15 157.979" fill="#C4C3EC"/>
<path d="M156.952 159.009L157.038 159.351L158.792 157.84L158.707 157.498L156.952 159.009" fill="#B7B6E3"/>
<path d="M155.15 157.979L156.953 159.009L158.707 157.498L156.904 156.468L155.15 157.979Z" fill="#EBEBF1"/>
<path d="M124.264 143.335L124.35 143.677L125.443 144.301L125.357 143.959L124.264 143.335Z" fill="#C4C3EC"/>
<path d="M125.357 143.959L125.442 144.301L127.197 142.791L127.111 142.449L125.357 143.959Z" fill="#B7B6E3"/>
<path d="M120.369 144.108L120.454 144.45L122.257 145.48L122.171 145.138L120.369 144.108Z" fill="#C4C3EC"/>
<path d="M120.369 144.108L122.171 145.138L124.264 143.335L125.357 143.959L127.111 142.449L124.216 140.794L123.602 141.323L122.462 142.306L120.369 144.108Z" fill="#EBEBF1"/>
<path d="M122.172 145.138L122.257 145.48L124.35 143.677L124.264 143.335L122.172 145.138Z" fill="#B7B6E3"/>
<path d="M127.543 145.208L127.628 145.55L129.382 144.038L129.297 143.697L127.543 145.208Z" fill="#B7B6E3"/>
<path d="M125.74 144.178L125.825 144.52L127.628 145.55L127.543 145.208L125.74 144.178Z" fill="#C4C3EC"/>
<path d="M125.74 144.178L127.543 145.208L129.297 143.697L127.494 142.667L125.74 144.178Z" fill="#EBEBF1"/>
<path d="M122.554 145.357L122.639 145.699L124.442 146.728L124.357 146.386L122.554 145.357Z" fill="#C4C3EC"/>
<path d="M122.554 145.357L124.357 146.386L126.111 144.875L124.308 143.846L122.554 145.357Z" fill="#EBEBF1"/>
<path d="M124.357 146.386L124.442 146.728L126.196 145.217L126.111 144.875L124.357 146.386Z" fill="#B7B6E3"/>
<path d="M127.925 145.426L128.01 145.768L129.813 146.798L129.728 146.456L127.925 145.426Z" fill="#C4C3EC"/>
<path d="M129.728 146.456L129.813 146.798L131.568 145.287L131.482 144.945L129.728 146.456Z" fill="#B7B6E3"/>
<path d="M127.925 145.426L129.728 146.456L131.482 144.945L129.679 143.915L127.925 145.426Z" fill="#EBEBF1"/>
<path d="M130.11 146.675L130.196 147.017L131.999 148.046L131.913 147.705L130.11 146.675Z" fill="#C4C3EC"/>
<path d="M131.913 147.705L131.999 148.046L133.753 146.535L133.667 146.193L131.913 147.705Z" fill="#B7B6E3"/>
<path d="M130.11 146.675L131.913 147.704L133.668 146.193L131.865 145.163L130.11 146.675Z" fill="#EBEBF1"/>
<path d="M132.296 147.923L132.381 148.265L134.184 149.294L134.098 148.952L132.296 147.923Z" fill="#C4C3EC"/>
<path d="M134.098 148.952L134.184 149.294L135.938 147.784L135.853 147.442L134.098 148.952Z" fill="#B7B6E3"/>
<path d="M132.296 147.923L134.098 148.953L135.853 147.442L134.05 146.412L132.296 147.923Z" fill="#EBEBF1"/>
<path d="M134.481 149.171L134.567 149.513L136.37 150.543L136.284 150.201L134.481 149.171Z" fill="#C4C3EC"/>
<path d="M136.284 150.201L136.369 150.543L138.123 149.032L138.038 148.69L136.284 150.201Z" fill="#B7B6E3"/>
<path d="M134.481 149.171L136.284 150.201L138.039 148.69L136.236 147.66L134.481 149.171Z" fill="#EBEBF1"/>
<path d="M124.739 146.605L124.825 146.946L126.627 147.976L126.542 147.635L124.739 146.605Z" fill="#C4C3EC"/>
<path d="M126.542 147.635L126.627 147.976L128.382 146.466L128.296 146.124L126.542 147.635Z" fill="#B7B6E3"/>
<path d="M124.739 146.605L126.542 147.635L128.296 146.124L126.494 145.094L124.739 146.605Z" fill="#EBEBF1"/>
<path d="M126.924 147.853L127.01 148.195L128.813 149.225L128.727 148.883L126.924 147.853Z" fill="#C4C3EC"/>
<path d="M128.727 148.883L128.813 149.225L130.567 147.714L130.482 147.372L128.727 148.883Z" fill="#B7B6E3"/>
<path d="M126.924 147.853L128.727 148.883L130.482 147.372L128.679 146.342L126.924 147.853Z" fill="#EBEBF1"/>
<path d="M129.11 149.101L129.195 149.443L130.998 150.473L130.912 150.132L129.11 149.101Z" fill="#C4C3EC"/>
<path d="M130.913 150.132L130.998 150.473L132.753 148.962L132.667 148.62L130.913 150.132Z" fill="#B7B6E3"/>
<path d="M129.11 149.101L130.912 150.132L132.667 148.62L130.864 147.591L129.11 149.101Z" fill="#EBEBF1"/>
<path d="M131.295 150.35L131.381 150.692L133.183 151.722L133.098 151.38L131.295 150.35Z" fill="#C4C3EC"/>
<path d="M133.098 151.38L133.183 151.722L134.937 150.21L134.852 149.868L133.098 151.38Z" fill="#B7B6E3"/>
<path d="M131.295 150.35L133.098 151.38L134.853 149.868L133.05 148.839L131.295 150.35Z" fill="#EBEBF1"/>
<path d="M136.667 150.42L136.752 150.761L138.555 151.791L138.469 151.449L136.667 150.42Z" fill="#C4C3EC"/>
<path d="M138.469 151.449L138.555 151.791L140.309 150.28L140.224 149.938L138.469 151.449Z" fill="#B7B6E3"/>
<path d="M136.667 150.419L138.469 151.449L140.224 149.938L138.421 148.909L136.667 150.419Z" fill="#EBEBF1"/>
<path d="M133.481 151.598L133.566 151.94L135.369 152.969L135.284 152.628L133.481 151.598Z" fill="#C4C3EC"/>
<path d="M135.284 152.628L135.369 152.969L137.123 151.459L137.038 151.117L135.284 152.628Z" fill="#B7B6E3"/>
<path d="M133.481 151.598L135.284 152.628L137.038 151.117L135.235 150.087L133.481 151.598Z" fill="#EBEBF1"/>
<path d="M138.852 151.668L138.937 152.01L140.74 153.039L140.655 152.698L138.852 151.668Z" fill="#C4C3EC"/>
<path d="M140.655 152.698L140.74 153.039L142.494 151.528L142.409 151.186L140.655 152.698Z" fill="#B7B6E3"/>
<path d="M138.852 151.668L140.655 152.698L142.409 151.187L140.606 150.157L138.852 151.668Z" fill="#EBEBF1"/>
<path d="M135.666 152.847L135.751 153.188L137.554 154.218L137.469 153.876L135.666 152.847Z" fill="#C4C3EC"/>
<path d="M137.469 153.876L137.554 154.218L139.309 152.707L139.223 152.365L137.469 153.876Z" fill="#B7B6E3"/>
<path d="M135.666 152.847L137.469 153.876L139.223 152.365L137.42 151.335L135.666 152.847Z" fill="#EBEBF1"/>
<path d="M141.037 152.916L141.122 153.258L142.925 154.288L142.84 153.946L141.037 152.916Z" fill="#C4C3EC"/>
<path d="M142.84 153.946L142.925 154.288L144.68 152.777L144.595 152.435L142.84 153.946Z" fill="#B7B6E3"/>
<path d="M141.037 152.916L142.84 153.946L144.594 152.435L142.791 151.405L141.037 152.916Z" fill="#EBEBF1"/>
<path d="M137.851 154.094L137.937 154.436L139.74 155.466L139.655 155.125L137.851 154.094Z" fill="#C4C3EC"/>
<path d="M139.655 155.125L139.74 155.466L141.494 153.955L141.408 153.614L139.655 155.125Z" fill="#B7B6E3"/>
<path d="M137.851 154.094L139.654 155.125L141.408 153.614L139.606 152.584L137.851 154.094Z" fill="#EBEBF1"/>
<path d="M143.222 154.164L143.308 154.506L145.111 155.536L145.025 155.194L143.222 154.164Z" fill="#C4C3EC"/>
<path d="M145.025 155.194L145.111 155.536L146.865 154.025L146.78 153.683L145.025 155.194" fill="#B7B6E3"/>
<path d="M143.222 154.164L145.025 155.194L146.78 153.683L144.977 152.653L143.222 154.164" fill="#EBEBF1"/>
<path d="M140.037 155.343L140.122 155.685L141.925 156.715L141.84 156.373L140.037 155.343Z" fill="#C4C3EC"/>
<path d="M141.84 156.373L141.925 156.715L143.679 155.203L143.594 154.862L141.84 156.373Z" fill="#B7B6E3"/>
<path d="M140.037 155.343L141.84 156.373L143.594 154.862L141.791 153.832L140.037 155.343Z" fill="#EBEBF1"/>
<path d="M145.408 155.413L145.493 155.755L147.296 156.785L147.211 156.443L145.408 155.413Z" fill="#C4C3EC"/>
<path d="M147.211 156.443L147.296 156.785L149.05 155.273L148.965 154.932L147.211 156.443Z" fill="#B7B6E3"/>
<path d="M145.408 155.413L147.211 156.443L148.965 154.932L147.162 153.902L145.408 155.413Z" fill="#EBEBF1"/>
<path d="M142.222 156.591L142.307 156.933L144.11 157.963L144.025 157.621L142.222 156.591Z" fill="#C4C3EC"/>
<path d="M144.025 157.621L144.11 157.963L145.864 156.452L145.779 156.11L144.025 157.621" fill="#B7B6E3"/>
<path d="M142.222 156.591L144.025 157.621L145.779 156.11L143.976 155.08L142.222 156.591" fill="#EBEBF1"/>
<path d="M147.593 156.661L147.678 157.003L149.481 158.032L149.396 157.691L147.593 156.661Z" fill="#C4C3EC"/>
<path d="M149.396 157.691L149.481 158.032L151.236 156.522L151.15 156.18L149.396 157.691" fill="#B7B6E3"/>
<path d="M147.593 156.661L149.396 157.691L151.15 156.18L149.347 155.15L147.593 156.661Z" fill="#EBEBF1"/>
<path d="M144.407 157.84L144.492 158.181L146.295 159.211L146.21 158.87L144.407 157.84Z" fill="#C4C3EC"/>
<path d="M146.21 158.87L146.295 159.211L148.05 157.7L147.964 157.358L146.21 158.87" fill="#B7B6E3"/>
<path d="M144.407 157.84L146.21 158.87L147.964 157.358L146.161 156.328L144.407 157.84Z" fill="#EBEBF1"/>
<path d="M149.778 157.91L149.863 158.251L154.945 161.154L154.859 160.812L149.778 157.91Z" fill="#C4C3EC"/>
<path d="M154.859 160.812L154.945 161.154L156.699 159.642L156.614 159.301L154.859 160.812Z" fill="#B7B6E3"/>
<path d="M149.778 157.909L154.86 160.812L156.614 159.301L151.532 156.398L149.778 157.909Z" fill="#EBEBF1"/>
<path d="M146.593 159.088L146.678 159.43L148.481 160.46L148.396 160.118L146.593 159.088Z" fill="#C4C3EC"/>
<path d="M148.395 160.118L148.48 160.46L150.235 158.948L150.149 158.607L148.395 160.118" fill="#B7B6E3"/>
<path d="M146.593 159.088L148.396 160.118L150.15 158.607L148.347 157.577L146.593 159.088" fill="#EBEBF1"/>
<path d="M118.275 145.911L118.36 146.253L121.256 147.907L121.171 147.565L118.275 145.911Z" fill="#C4C3EC"/>
<path d="M121.171 147.565L121.256 147.907L123.01 146.396L122.925 146.054L121.171 147.565Z" fill="#B7B6E3"/>
<path d="M118.275 145.911L121.171 147.565L122.925 146.054L120.029 144.4L118.275 145.911Z" fill="#EBEBF1"/>
<path d="M121.553 147.783L121.639 148.125L123.442 149.155L123.356 148.814L121.553 147.783Z" fill="#C4C3EC"/>
<path d="M123.356 148.814L123.441 149.155L125.196 147.644L125.11 147.302L123.356 148.814Z" fill="#B7B6E3"/>
<path d="M121.553 147.783L123.356 148.814L125.111 147.302L123.308 146.272L121.553 147.783Z" fill="#EBEBF1"/>
<path d="M123.739 149.032L123.824 149.374L125.627 150.403L125.542 150.061L123.739 149.032Z" fill="#C4C3EC"/>
<path d="M125.542 150.061L125.627 150.403L127.382 148.892L127.296 148.551L125.542 150.061Z" fill="#B7B6E3"/>
<path d="M123.739 149.032L125.542 150.062L127.296 148.551L125.493 147.521L123.739 149.032Z" fill="#EBEBF1"/>
<path d="M125.925 150.28L126.01 150.622L127.813 151.652L127.728 151.31L125.925 150.28Z" fill="#C4C3EC"/>
<path d="M127.727 151.31L127.812 151.652L129.566 150.141L129.481 149.799L127.727 151.31Z" fill="#B7B6E3"/>
<path d="M125.925 150.28L127.728 151.31L129.482 149.799L127.679 148.769L125.925 150.28Z" fill="#EBEBF1"/>
<path d="M128.11 151.528L128.195 151.87L129.998 152.9L129.913 152.558L128.11 151.528Z" fill="#C4C3EC"/>
<path d="M129.913 152.558L129.998 152.9L131.752 151.389L131.667 151.048L129.913 152.558Z" fill="#B7B6E3"/>
<path d="M128.11 151.529L129.913 152.558L131.667 151.048L129.864 150.017L128.11 151.529Z" fill="#EBEBF1"/>
<path d="M130.295 152.777L130.38 153.118L132.183 154.148L132.098 153.807L130.295 152.777Z" fill="#C4C3EC"/>
<path d="M132.098 153.807L132.184 154.148L133.938 152.637L133.852 152.295L132.098 153.807Z" fill="#B7B6E3"/>
<path d="M130.295 152.777L132.098 153.807L133.852 152.296L132.049 151.266L130.295 152.777Z" fill="#EBEBF1"/>
<path d="M132.48 154.025L132.565 154.367L134.368 155.397L134.283 155.055L132.48 154.025Z" fill="#C4C3EC"/>
<path d="M134.283 155.055L134.368 155.397L136.122 153.885L136.038 153.544L134.283 155.055Z" fill="#B7B6E3"/>
<path d="M132.48 154.025L134.283 155.055L136.038 153.544L134.234 152.514L132.48 154.025Z" fill="#EBEBF1"/>
<path d="M134.665 155.273L134.751 155.615L136.554 156.645L136.469 156.303L134.665 155.273Z" fill="#C4C3EC"/>
<path d="M136.469 156.303L136.554 156.645L138.308 155.134L138.223 154.792L136.469 156.303" fill="#B7B6E3"/>
<path d="M134.665 155.273L136.469 156.303L138.223 154.792L136.42 153.762L134.665 155.273Z" fill="#EBEBF1"/>
<path d="M136.851 156.522L136.936 156.863L138.739 157.894L138.654 157.552L136.851 156.522Z" fill="#C4C3EC"/>
<path d="M138.654 157.552L138.739 157.894L140.493 156.382L140.408 156.041L138.654 157.552Z" fill="#B7B6E3"/>
<path d="M136.851 156.522L138.654 157.552L140.408 156.041L138.605 155.01L136.851 156.522Z" fill="#EBEBF1"/>
<path d="M139.036 157.77L139.121 158.112L140.924 159.141L140.839 158.8L139.036 157.77Z" fill="#C4C3EC"/>
<path d="M140.839 158.8L140.924 159.141L142.678 157.631L142.593 157.289L140.839 158.8Z" fill="#B7B6E3"/>
<path d="M139.036 157.77L140.839 158.8L142.593 157.289L140.79 156.259L139.036 157.77Z" fill="#EBEBF1"/>
<path d="M141.222 159.018L141.307 159.36L143.11 160.39L143.025 160.048L141.222 159.018Z" fill="#C4C3EC"/>
<path d="M143.024 160.048L143.11 160.39L144.864 158.879L144.779 158.537L143.024 160.048Z" fill="#B7B6E3"/>
<path d="M141.222 159.018L143.025 160.048L144.779 158.537L142.976 157.507L141.222 159.018Z" fill="#EBEBF1"/>
<path d="M143.407 160.267L143.492 160.609L145.296 161.638L145.21 161.296L143.407 160.267" fill="#C4C3EC"/>
<path d="M145.21 161.296L145.296 161.638L147.05 160.127L146.965 159.786L145.21 161.296" fill="#B7B6E3"/>
<path d="M143.407 160.266L145.21 161.296L146.965 159.785L145.161 158.756L143.407 160.266" fill="#EBEBF1"/>
<path d="M116.182 147.714L116.268 148.055L120.256 150.334L120.171 149.992L116.182 147.714" fill="#C4C3EC"/>
<path d="M120.171 149.992L120.256 150.334L122.011 148.822L121.925 148.481L120.171 149.992Z" fill="#B7B6E3"/>
<path d="M116.182 147.714L120.171 149.992L121.925 148.481L117.937 146.203L116.182 147.714Z" fill="#EBEBF1"/>
<path d="M120.553 150.21L120.638 150.552L122.441 151.582L122.356 151.24L120.553 150.21Z" fill="#C4C3EC"/>
<path d="M122.356 151.24L122.441 151.582L124.195 150.071L124.11 149.73L122.356 151.24Z" fill="#B7B6E3"/>
<path d="M120.553 150.21L122.356 151.24L124.11 149.729L122.308 148.7L120.553 150.21Z" fill="#EBEBF1"/>
<path d="M122.738 151.459L122.824 151.801L124.627 152.831L124.541 152.489L122.738 151.459Z" fill="#C4C3EC"/>
<path d="M124.542 152.489L124.627 152.831L126.381 151.319L126.296 150.978L124.542 152.489Z" fill="#B7B6E3"/>
<path d="M122.738 151.459L124.541 152.489L126.296 150.978L124.493 149.947L122.738 151.459Z" fill="#EBEBF1"/>
<path d="M124.924 152.707L125.009 153.049L139.924 161.569L139.839 161.227L124.924 152.707Z" fill="#C4C3EC"/>
<path d="M139.839 161.227L139.924 161.569L141.678 160.057L141.593 159.716L139.839 161.227Z" fill="#B7B6E3"/>
<path d="M124.924 152.707L139.839 161.227L141.593 159.716L126.678 151.196L124.924 152.707" fill="#EBEBF1"/>
<path d="M140.222 161.445L140.306 161.787L142.11 162.817L142.024 162.475L140.222 161.445Z" fill="#C4C3EC"/>
<path d="M142.024 162.475L142.11 162.817L143.864 161.306L143.778 160.964L142.024 162.475Z" fill="#B7B6E3"/>
<path d="M140.222 161.445L142.024 162.475L143.778 160.964L141.976 159.934L140.222 161.445Z" fill="#EBEBF1"/>
<path d="M148.778 160.336L148.864 160.678L152.852 162.956L152.767 162.614L148.778 160.336" fill="#C4C3EC"/>
<path d="M152.766 162.614L152.851 162.956L154.606 161.445L154.52 161.104L152.766 162.614Z" fill="#B7B6E3"/>
<path d="M148.778 160.336L152.767 162.615L154.521 161.104L150.533 158.825L148.778 160.336Z" fill="#EBEBF1"/>
<path d="M145.592 161.515L145.677 161.857L147.481 162.886L147.396 162.545L145.592 161.515Z" fill="#C4C3EC"/>
<path d="M147.395 162.545L147.48 162.886L149.235 161.376L149.149 161.034L147.395 162.545Z" fill="#B7B6E3"/>
<path d="M145.592 161.515L147.396 162.545L149.15 161.034L147.346 160.004L145.592 161.515Z" fill="#EBEBF1"/>
<path d="M142.406 162.694L142.492 163.035L144.295 164.065L144.21 163.724L142.406 162.694Z" fill="#C4C3EC"/>
<path d="M144.209 163.724L144.295 164.065L146.049 162.554L145.964 162.212L144.209 163.724" fill="#B7B6E3"/>
<path d="M142.406 162.694L144.21 163.724L145.964 162.212L144.161 161.182L142.406 162.694" fill="#EBEBF1"/>
<path d="M147.778 162.763L147.863 163.105L150.759 164.759L150.674 164.417L147.778 162.763Z" fill="#C4C3EC"/>
<path d="M150.674 164.417L150.759 164.759L152.513 163.248L152.428 162.906L150.674 164.417Z" fill="#B7B6E3"/>
<path d="M147.778 162.763L150.674 164.417L152.428 162.906L149.532 161.252L147.778 162.763Z" fill="#EBEBF1"/>
<path d="M144.592 163.941L144.677 164.283L148.665 166.562L148.58 166.22L144.592 163.941" fill="#C4C3EC"/>
<path d="M148.58 166.22L148.665 166.562L150.42 165.051L150.335 164.709L148.58 166.22" fill="#B7B6E3"/>
<path d="M144.592 163.942L148.58 166.22L150.334 164.709L146.346 162.431L144.592 163.942Z" fill="#EBEBF1"/>
<path d="M184.154 87.6352L182.703 86.792L152.168 190.246L153.619 191.089L184.154 87.6352Z" fill="#DAD9E8"/>
<path d="M186.119 87.432L184.668 86.5893L182.703 86.7919L184.154 87.6351L186.119 87.432" fill="#EBEBF1"/>
<path d="M184.154 87.6352L153.619 191.089L155.583 190.887L186.119 87.4321L184.154 87.6352Z" fill="#919DD6"/>
<path d="M196.244 108.314L197.388 107.65L197.393 105.933L196.249 106.597L196.244 108.314Z" fill="#919DD6"/>
<path d="M196.249 106.598L197.393 105.933L182.276 97.205L181.133 97.87L196.249 106.598Z" fill="#919DD6"/>
<path d="M181.133 97.87L179.911 98.8844L196.244 108.314L196.249 106.597L181.133 97.87" fill="#DAD9E8"/>
<path d="M192.487 120.8L193.631 120.135L193.636 118.418L192.492 119.083L192.487 120.8Z" fill="#919DD6"/>
<path d="M192.492 119.083L193.636 118.418L178.519 109.691L177.375 110.355L192.492 119.083Z" fill="#919DD6"/>
<path d="M177.375 110.355L176.154 111.37L192.487 120.8L192.492 119.083L177.375 110.355" fill="#DAD9E8"/>
<path d="M188.844 133.334L189.988 132.669L189.993 130.953L188.849 131.617L188.844 133.334" fill="#919DD6"/>
<path d="M188.849 131.617L189.993 130.953L174.876 122.225L173.732 122.89L188.849 131.617Z" fill="#919DD6"/>
<path d="M173.732 122.89L172.511 123.904L188.844 133.334L188.849 131.617L173.732 122.89" fill="#DAD9E8"/>
<path d="M185.079 145.814L186.223 145.15L186.228 143.433L185.084 144.098L185.079 145.814" fill="#919DD6"/>
<path d="M185.084 144.098L186.228 143.433L171.111 134.706L169.968 135.37L185.084 144.098Z" fill="#919DD6"/>
<path d="M169.968 135.37L168.746 136.385L185.079 145.814L185.084 144.098L169.968 135.37" fill="#DAD9E8"/>
<path d="M181.437 158.349L182.58 157.684L182.585 155.968L181.441 156.632L181.437 158.349Z" fill="#919DD6"/>
<path d="M181.441 156.632L182.585 155.968L167.469 147.24L166.325 147.905L181.441 156.632Z" fill="#919DD6"/>
<path d="M166.325 147.905L165.104 148.919L181.437 158.349L181.441 156.632L166.325 147.905" fill="#DAD9E8"/>
<path d="M181.428 158.349L182.572 157.684L182.577 155.968L181.433 156.632L181.428 158.349Z" fill="#919DD6"/>
<path d="M181.433 156.632L182.576 155.968L167.46 147.24L166.316 147.905L181.433 156.632Z" fill="#919DD6"/>
<path d="M177.785 170.884L178.929 170.219L178.934 168.502L177.79 169.167L177.785 170.884" fill="#919DD6"/>
<path d="M177.79 169.167L178.934 168.502L163.817 159.775L162.673 160.439L177.79 169.167Z" fill="#919DD6"/>
<path d="M162.673 160.439L161.452 161.454L177.785 170.884L177.79 169.167L162.673 160.439" fill="#DAD9E8"/>
<path d="M174.081 183.399L175.224 182.734L175.229 181.017L174.086 181.681L174.081 183.399" fill="#919DD6"/>
<path d="M174.085 181.682L175.229 181.017L160.113 172.289L158.969 172.954L174.085 181.682" fill="#919DD6"/>
<path d="M158.969 172.954L157.747 173.969L174.08 183.399L174.085 181.681L158.969 172.954Z" fill="#DAD9E8"/>
<path d="M170.377 195.898L171.522 195.234L171.526 193.517L170.383 194.182L170.377 195.898Z" fill="#919DD6"/>
<path d="M170.383 194.181L171.526 193.517L156.409 184.789L155.265 185.454L170.383 194.181" fill="#919DD6"/>
<path d="M155.265 185.454L154.045 186.468L170.377 195.898L170.383 194.182L155.265 185.454" fill="#DAD9E8"/>
<path d="M200.297 97.0362L198.846 96.1935L168.311 199.648L169.762 200.491L200.297 97.0362Z" fill="#DAD9E8"/>
<path d="M202.262 96.8337L200.811 95.9904L198.846 96.1935L200.297 97.0363L202.262 96.8337" fill="#EBEBF1"/>
<path d="M200.297 97.0362L169.762 200.491L171.727 200.288L202.263 96.8336L200.297 97.0362" fill="#919DD6"/>
<path d="M166.632 179.436C166.759 179.155 166.956 179.259 167.191 179.22C167.483 179.171 167.771 178.999 168.011 178.832C168.319 178.617 168.592 178.357 168.883 178.118C169.635 177.498 170.501 177.019 171.425 176.709C171.841 176.57 172.321 176.465 172.757 176.55C173.091 176.616 173.429 176.705 173.715 176.889C173.94 177.033 174.134 177.244 174.224 177.498C174.31 177.737 174.274 178.024 174.258 178.274C174.243 178.508 174.209 178.745 174.125 178.964C173.955 179.407 173.595 179.746 173.233 180.052C172.815 180.405 172.37 180.74 171.859 180.934C171.441 181.093 170.987 181.154 170.59 181.358C170.322 181.495 170.092 181.692 169.885 181.908C169.721 182.078 169.587 182.308 169.372 182.416C168.925 182.641 168.405 182.805 167.901 182.783C166.909 182.741 166.161 182.052 166.239 181.032C166.267 180.666 166.372 180.311 166.477 179.959C166.543 179.738 166.575 179.564 166.632 179.436" fill="#01084E"/>
<path d="M158.127 187.068C158.264 186.793 158.458 186.904 158.694 186.874C158.989 186.837 159.283 186.677 159.528 186.52C159.845 186.317 160.129 186.068 160.429 185.841C161.205 185.252 162.09 184.807 163.025 184.535C163.629 184.359 164.264 184.233 164.859 184.507C165.193 184.66 165.478 184.915 165.669 185.227C165.856 185.532 165.829 185.869 165.793 186.211C165.77 186.445 165.726 186.68 165.633 186.896C165.445 187.331 165.072 187.656 164.698 187.947C164.267 188.284 163.809 188.601 163.289 188.774C162.866 188.915 162.41 188.959 162.005 189.146C161.732 189.273 161.494 189.46 161.278 189.668C161.108 189.832 160.965 190.055 160.745 190.155C160.29 190.361 159.764 190.504 159.261 190.464C158.272 190.382 157.552 189.663 157.67 188.647C157.713 188.282 157.833 187.932 157.951 187.584C158.026 187.366 158.065 187.193 158.127 187.068" fill="#01084E"/>
<path d="M163.429 161.507C163.433 161.207 163.39 161.007 163.005 160.888C161.915 160.549 160.813 160.196 159.703 159.926C159.045 159.767 158.384 159.657 157.717 159.643L156.265 158.334C156.086 159.596 155.98 160.879 156.125 162.146C156.441 164.905 157.162 171.272 157.35 174.308C157.478 176.366 157.48 178.429 157.493 180.491C157.505 182.508 157.666 184.528 157.813 186.539C157.846 186.991 157.889 187.466 158.219 187.801C158.543 188.128 159.038 188.327 159.488 188.381C160.215 188.468 160.971 188.193 161.49 187.677C161.818 187.35 161.805 186.705 161.855 186.27C161.9 185.875 161.921 185.477 161.936 185.079C161.979 183.932 161.979 182.784 162.018 181.636C162.057 180.425 162.122 179.215 162.205 178.007C162.261 177.213 162.324 176.419 162.393 175.626C162.431 175.189 162.472 174.752 162.513 174.315C162.641 173.085 162.837 171.859 162.958 170.612C163.181 168.281 163.325 165.942 163.388 163.602C163.403 163.016 163.414 162.431 163.419 161.845C163.421 161.721 163.427 161.608 163.429 161.507" fill="#11449B"/>
<path d="M164 155.07C162.914 155.041 161.606 157.336 160.932 157.986C160.31 158.585 159.66 159.154 158.999 159.71C158.705 159.957 158.379 160.331 158.038 160.504C157.742 160.654 157.386 160.628 157.078 160.787C156.836 160.911 156.003 159.886 155.957 160.154C155.887 160.564 156.442 162.138 157.12 162.628C160.108 164.793 163.888 165.408 166.772 167.691C167.985 168.651 168.955 169.877 170.076 170.944C170.214 171.075 170.358 171.207 170.53 171.291C170.827 171.437 171.175 171.427 171.504 171.386C172.688 171.239 172.374 170.585 172.756 169.34C173.042 168.406 174.558 168.375 174.407 167.409C174.186 165.99 173.055 164.972 172.406 164.242C169.933 161.458 167.582 158.555 165.079 155.784C164.828 155.507 164.56 155.221 164.206 155.105C164.138 155.083 164.069 155.072 164 155.07" fill="#336FD6"/>
<path d="M169.57 144.474C169.597 144.817 169.538 145.485 169.205 145.709C168.929 145.895 168.325 145.826 168.013 145.856C167.03 145.947 166.046 146.01 165.063 146.073C164.617 146.102 164.171 146.131 163.726 146.145C162.419 146.187 161.119 146.101 159.848 145.89C159.353 145.808 158.533 145.689 158.14 145.361C157.75 145.036 157.714 144.509 157.779 143.985C157.896 143.048 158.359 142.129 159.25 141.771C160.144 141.413 161.027 141.566 161.913 141.679C163.962 141.941 165.986 142.333 167.971 142.854C168.324 142.946 168.683 143.046 168.978 143.26C169.316 143.504 169.53 143.979 169.57 144.474" fill="white"/>
<path d="M169.222 143.352L169.221 143.258C169.209 142.719 169.207 142.093 168.895 141.624C168.622 141.214 168.091 141 167.689 140.744C166.339 139.881 164.894 139.17 163.387 138.627C161.093 137.8 158.751 136.117 156.304 137.499C156.055 137.64 155.819 137.806 155.614 138.006C154.354 139.233 154.497 141.214 154.695 142.801C154.949 144.846 155.556 146.825 155.912 148.852C155.987 149.275 156.05 149.7 156.104 150.125C156.288 151.597 156.155 153.108 156.355 154.566C156.529 155.835 156.132 157.283 155.966 158.557C155.863 159.342 155.776 160.202 156.206 160.868C156.669 161.585 157.578 161.842 158.411 162.033C161.458 162.732 164.717 163.268 167.652 162.192C168.175 162.001 168.725 161.715 168.933 161.199C169.069 160.859 169.032 160.478 168.996 160.114C168.584 156 168.475 151.846 168.887 147.731C169.033 146.275 169.246 144.819 169.222 143.352" fill="#F4413C"/>
<path d="M168.828 141.345C167.973 140.788 166.901 140.398 166 140.88C165.66 141.061 165.393 141.38 165.165 141.72C164.98 141.993 164.814 142.287 164.704 142.613C164.45 143.369 164.555 144.272 164.924 144.997C165.386 145.903 166.035 146.301 166.844 146.675C167.551 147.001 168.244 147.372 168.934 147.749C170.311 148.503 171.683 149.292 173.129 149.834C173.975 150.151 174.933 150.369 175.682 149.897C176.188 149.578 176.527 148.954 176.564 148.278C176.653 146.639 175.57 146.352 175.413 146.24C170.486 142.687 168.716 141.271 168.828 141.345" fill="#F5554F"/>
<path d="M180.646 143.065C180.687 142.961 180.715 142.855 180.764 142.753C181.021 142.223 181.347 141.726 181.731 141.279C182.057 140.899 182.469 140.396 182.983 140.284C183.44 140.184 183.833 140.014 184.253 140.335C184.341 140.402 184.418 140.505 184.442 140.615C184.463 140.709 184.397 140.809 184.414 140.888C184.453 141.062 184.752 141.207 184.874 141.359C184.94 141.443 185.003 141.556 184.954 141.651C184.915 141.727 184.81 141.775 184.815 141.861C184.824 141.984 184.981 142.001 184.953 142.14C184.944 142.19 184.892 142.224 184.888 142.279C184.884 142.343 184.938 142.409 184.953 142.47C184.977 142.564 184.957 142.663 184.937 142.758L184.9 142.846L184.819 142.881C184.548 142.934 184.295 142.878 184.027 142.906C183.821 142.929 183.637 143.046 183.487 143.189C183.338 143.332 183.216 143.5 183.079 143.655C182.913 143.843 182.723 144.011 182.516 144.153C182.341 144.274 181.973 144.494 181.893 144.565L180.646 143.065" fill="#F5BFA6"/>
<path d="M182.118 142.912C182.32 143.18 182.639 143.764 182.529 144.14C182.439 144.45 181.988 144.738 181.789 144.94C181.162 145.576 180.52 146.189 179.878 146.802C179.587 147.08 179.296 147.358 178.997 147.623C178.122 148.402 177.182 149.073 176.195 149.623C175.812 149.838 175.184 150.207 174.738 150.16C174.297 150.114 173.99 149.699 173.754 149.228C173.332 148.388 173.158 147.365 173.579 146.562C174.001 145.755 174.691 145.379 175.36 144.967C176.908 144.015 178.51 143.185 180.153 142.484C180.444 142.359 180.745 142.237 181.062 142.245C181.424 142.254 181.827 142.525 182.118 142.912" fill="#F5554F"/>
<path d="M163.999 136.633C164.087 136.027 164.545 136.168 164.314 135.619C164.118 135.151 163.818 134.722 163.418 134.412C163.017 134.102 162.511 133.919 162.005 133.946C161.83 133.956 161.714 134.056 161.542 134.056C161.064 134.058 160.584 133.967 160.108 134.036C159.634 134.105 159.196 134.139 159.196 134.674C159.196 135.388 159.228 136.073 159 136.775C158.879 137.15 158.694 137.511 158.661 137.903C158.597 138.676 159.161 139.395 159.858 139.732C160.716 140.147 161.685 140.109 162.597 139.977C163.055 139.911 163.699 139.819 163.968 139.383C164.17 139.054 164.083 138.623 164.04 138.264C163.974 137.719 163.919 137.181 163.999 136.633Z" fill="#F5BFA6"/>
<path d="M166.033 128.876C166.321 129.226 166.546 129.62 166.615 130.082C166.769 131.112 166.354 132.17 166.577 133.191C166.794 134.181 166.37 136.428 164.419 137.004C163.431 137.296 161.483 136.955 160.856 136.654C160.014 136.251 159.459 135.436 158.962 134.647C154.885 128.174 163.269 125.512 166.033 128.876" fill="#F5BFA6"/>
<path d="M157.77 127.604C157.967 127.401 158.21 127.226 158.505 127.088C158.595 127.047 158.69 127.007 158.754 126.932C158.801 126.876 158.825 126.804 158.857 126.737C158.996 126.439 159.273 126.228 159.561 126.069C160.648 125.463 161.967 125.434 163.198 125.612C163.614 125.671 164.031 125.754 164.417 125.919C164.858 126.109 165.248 126.401 165.6 126.726C166.098 127.186 166.571 127.726 166.831 128.36C166.951 128.655 166.975 128.967 167.06 129.266C167.136 129.536 167.043 129.853 166.818 130.025C166.722 130.099 166.608 130.145 166.508 130.214C166.094 130.492 166.016 131.136 165.838 131.572C165.725 131.848 165.502 131.998 165.438 132.294C165.372 132.602 165.377 132.924 165.28 133.226C165.233 133.369 165.138 133.524 164.988 133.533C164.926 133.536 164.864 133.514 164.812 133.481C164.638 133.373 164.548 133.17 164.49 132.974C164.432 132.777 164.395 132.57 164.286 132.397L164.223 132.334L164.15 132.333C163.94 132.374 163.803 132.529 163.702 132.707C163.581 132.921 163.516 133.161 163.452 133.399C163.352 133.772 163.339 134.088 163.293 134.459C163.245 134.836 163.139 135.238 162.875 135.522C162.283 136.161 161.144 136.125 160.374 135.954C160.095 135.892 159.815 135.827 159.558 135.703C158.963 135.417 158.558 134.855 158.179 134.316C157.833 133.822 157.483 133.319 157.3 132.744C157.197 132.421 157.15 132.082 157.104 131.746C156.914 130.381 156.772 128.63 157.77 127.604" fill="#01084E"/>
<path d="M163.827 131.715C163.06 131.548 162.721 132.481 163.143 133.301C163.266 133.54 163.512 133.773 163.689 133.976C164.902 135.363 165.439 134.136 165.058 133.669C164.172 132.583 164.791 131.925 163.827 131.715" fill="#F5BFA6"/>
<path d="M163.845 133.209C163.768 133.115 162.962 132.463 163.616 132.198C163.797 132.124 163.961 132.297 163.96 132.478C163.96 132.571 163.917 132.66 163.917 132.754C163.918 132.809 163.933 132.863 163.955 132.914C164.014 133.053 164.263 133.215 164.184 133.394C164.113 133.553 163.889 133.264 163.845 133.209" fill="#E9A27F"/>
<path d="M174.006 169.226L173.956 169.354C173.197 171.348 172.638 173.406 171.974 175.43C171.532 176.777 170.549 180.467 169.024 180.456C168.269 180.452 166.846 180.153 166.679 179.448C166.054 176.817 168.327 169.167 168.99 167.013C169.157 166.471 169.152 166.69 169.307 166.144C169.431 165.707 169.456 165.03 169.74 164.664C170.286 163.961 171.31 164.817 171.826 165.192C172.577 165.738 173.587 166.226 174.132 166.969C174.678 167.711 174.293 168.505 174.006 169.226" fill="#336FD6"/>
<path d="M111.072 153.613L111.067 155.367L105.336 152.059L105.341 150.304L111.072 153.613Z" fill="#919DD6"/>
<path d="M111.502 154.215L111.497 155.969C111.498 155.746 111.347 155.529 111.067 155.367L111.072 153.613C111.351 153.774 111.503 153.992 111.502 154.215Z" fill="#919DD6"/>
<path d="M111.502 154.215L111.497 155.969C111.498 155.746 111.347 155.529 111.067 155.367L111.072 153.613C111.351 153.774 111.503 153.992 111.502 154.215Z" fill="#919DD6"/>
<path d="M116.26 155.288L116.255 157.042C116.253 157.685 116.043 158.328 115.623 158.932L115.628 157.178C116.048 156.573 116.258 155.931 116.26 155.288Z" fill="#919DD6"/>
<path d="M116.26 155.288L116.255 157.042C116.253 157.685 116.043 158.328 115.623 158.932L115.628 157.178C116.048 156.573 116.258 155.931 116.26 155.288Z" fill="#919DD6"/>
<path d="M98.639 156.991L98.644 155.237C98.64 156.551 99.5072 157.867 101.243 158.87C103.831 160.363 107.61 160.738 110.786 159.992L110.781 161.746C107.605 162.492 103.826 162.118 101.238 160.624C99.5022 159.621 98.6356 158.306 98.639 156.991Z" fill="#919DD6"/>
<path d="M110.786 159.992L110.781 161.746C110.305 161.858 109.814 161.945 109.316 162.007L109.321 160.252C109.819 160.191 110.309 160.104 110.786 159.992Z" fill="#919DD6"/>
<path d="M109.321 160.252L109.316 162.007C106.497 162.355 103.437 161.893 101.238 160.624C99.5022 159.621 98.6356 158.306 98.639 156.991L98.644 155.237C98.64 156.551 99.5072 157.867 101.243 158.87C103.442 160.139 106.502 160.6 109.321 160.252Z" fill="#919DD6"/>
<path d="M146.198 174.126L146.193 175.88C145.635 175.558 144.727 175.557 144.173 175.879L144.178 174.125C144.732 173.802 145.64 173.803 146.198 174.126Z" fill="#919DD6"/>
<path d="M146.198 174.126L146.193 175.88C145.837 175.674 145.338 175.599 144.879 175.656L144.884 173.902C145.343 173.845 145.842 173.92 146.198 174.126Z" fill="#919DD6"/>
<path d="M144.884 173.902L144.879 175.656C144.62 175.688 144.373 175.762 144.173 175.879L144.178 174.124C144.378 174.008 144.625 173.934 144.884 173.902Z" fill="#919DD6"/>
<path d="M135.312 174.152L135.308 175.907L110.781 161.746L110.786 159.992L135.312 174.152" fill="#919DD6"/>
<path d="M144.177 174.125L144.173 175.879L140.375 178.086L140.38 176.332L144.177 174.125Z" fill="#919DD6"/>
<path d="M139.962 178.666L139.967 176.912C139.968 176.702 140.105 176.492 140.38 176.332L140.375 178.086C140.1 178.246 139.962 178.456 139.962 178.666Z" fill="#919DD6"/>
<path d="M140.38 176.332L140.375 178.086C140.267 178.149 140.18 178.219 140.115 178.294L140.119 176.54C140.185 176.465 140.272 176.395 140.38 176.332" fill="#919DD6"/>
<path d="M140.119 176.54L140.114 178.294C140.013 178.411 139.962 178.538 139.962 178.666L139.967 176.912C139.967 176.784 140.018 176.656 140.119 176.54Z" fill="#919DD6"/>
<path d="M152.362 175.988L152.357 177.742C152.355 178.241 152.229 178.739 151.977 179.22L151.982 177.465C152.234 176.984 152.36 176.486 152.362 175.988Z" fill="#919DD6"/>
<path d="M152.362 175.988L152.357 177.742C152.355 178.241 152.229 178.739 151.977 179.22L151.982 177.465C152.234 176.984 152.36 176.486 152.362 175.988Z" fill="#919DD6"/>
<path d="M151.983 177.465L151.978 179.22L146.193 175.88L146.198 174.126L151.983 177.465Z" fill="#919DD6"/>
<path d="M134.744 177.697L134.749 175.942C134.746 177.256 135.611 178.571 137.347 179.573C139.741 180.956 143.158 181.377 146.172 180.842L146.167 182.596C143.153 183.131 139.736 182.71 137.342 181.327C135.606 180.325 134.741 179.01 134.744 177.697" fill="#919DD6"/>
<path d="M146.172 180.842L146.167 182.596C145.922 182.64 145.675 182.676 145.425 182.708L145.43 180.953C145.68 180.922 145.927 180.885 146.172 180.842Z" fill="#919DD6"/>
<path d="M145.43 180.953L145.425 182.708C142.605 183.057 139.542 182.598 137.342 181.327C135.606 180.325 134.741 179.01 134.744 177.697L134.749 175.942C134.746 177.256 135.611 178.571 137.347 179.573C139.547 180.844 142.61 181.302 145.43 180.953" fill="#919DD6"/>
<path d="M149.764 172.357C152.159 173.74 152.897 175.717 151.983 177.465L146.198 174.125C145.64 173.803 144.732 173.802 144.178 174.124L140.38 176.332C139.826 176.654 139.83 177.179 140.388 177.502L146.173 180.842C143.159 181.377 139.742 180.956 137.347 179.573C134.809 178.108 134.131 175.972 135.313 174.152L110.786 159.992C107.61 160.738 103.831 160.363 101.244 158.87C98.9833 157.564 98.1964 155.728 98.8858 154.056L104.617 157.365C104.985 157.577 105.521 157.661 106.024 157.583L109.505 157.042C110.007 156.964 110.398 156.736 110.531 156.446L111.455 154.427C111.586 154.136 111.441 153.826 111.072 153.613L105.341 150.304C108.226 149.9 111.399 150.35 113.659 151.654C116.247 153.148 116.904 155.337 115.629 157.178L140.05 171.278C143.259 170.479 147.131 170.837 149.764 172.357Z" fill="#B7B6E3"/>
<path d="M98.8687 141.254C98.9215 141.088 99.027 140.999 99.3286 140.974C99.6846 140.945 100.042 140.929 100.399 140.906C100.883 140.875 101.366 140.845 101.848 140.814C101.824 140.423 101.813 140.025 101.77 139.637C102.283 139.747 102.569 139.596 103.06 139.414C103.639 139.2 104.227 139.007 104.82 138.835C105.073 138.761 105.339 138.691 105.598 138.744C106.25 138.877 106.607 139.951 106.519 140.515C106.456 140.914 106.187 141.254 105.869 141.504C105.394 141.879 104.724 142.185 104.125 142.274C103.483 142.37 102.893 142.571 102.376 142.976C101.707 143.499 101.23 144.052 100.343 144.116C99.4521 144.18 98.7139 143.639 98.6795 142.719C98.6671 142.389 98.7258 142.062 98.7831 141.737C98.8194 141.533 98.8304 141.374 98.8687 141.254Z" fill="#919DD6"/>
<path d="M101.577 142.356C101.578 142.286 101.576 142.216 101.571 142.145C101.524 141.421 101.803 140.81 102.067 140.14C102.165 139.891 102.272 139.629 102.482 139.462C102.96 139.081 103.717 139.415 104.022 139.946C104.162 140.192 104.24 140.469 104.366 140.723C104.606 141.204 105.088 141.778 105.67 141.804C106.451 141.84 107.329 141.571 108.12 141.523C108.428 141.505 108.748 141.494 109.034 141.61C109.709 141.883 109.903 142.972 109.662 143.579C109.514 143.955 109.176 144.227 108.811 144.4C108.264 144.661 107.543 144.811 106.939 144.766C106.291 144.717 105.672 144.782 105.078 145.062C104.058 145.544 102.873 146.235 101.843 145.297C101.568 145.047 101.434 144.671 101.401 144.3C101.345 143.644 101.568 143.008 101.577 142.356" fill="#C4C3EC"/>
<path d="M99.4319 112.378C99.9227 112.875 101.776 111.961 101.802 111.718C104.006 110.009 103.744 116.833 103.111 119.544C102.772 121.006 102.861 122.527 102.658 124.012C102.432 125.666 102.083 127.304 101.615 128.907C101.515 129.253 101.4 129.611 101.153 129.874C100.643 130.416 99.7779 130.364 99.0437 130.243C98.407 130.139 97.6947 129.96 97.3816 129.396C97.1879 129.048 97.1939 128.63 97.1969 128.233C97.2034 127.186 97.2103 126.104 97.0018 125.076C96.7793 123.978 96.5563 122.881 96.3338 121.783C96.1396 120.823 95.9445 119.861 95.8479 118.887C95.6727 117.125 95.8205 115.347 96.0928 113.602C96.2357 112.686 95.9311 110.971 97.2313 110.785C98.4075 110.618 99.1049 112.048 99.4319 112.378" fill="#DB3029"/>
<path d="M101.895 127.35L102.26 125.818C102.114 126.323 101.994 126.834 101.895 127.35Z" fill="#EA533E"/>
<path d="M101.352 128.329C100.974 127.806 100.039 127.834 99.7268 127.973C99.4809 128.082 97.6918 127.055 97.1657 126.659C97.2055 126.689 97.1348 127.123 97.1309 127.188C97.1189 127.369 97.108 127.551 97.0985 127.733C97.0786 128.092 97.0622 128.45 97.0492 128.81C97.0233 129.512 97.0114 130.215 97.0164 130.918C97.0258 132.293 97.102 133.669 97.2633 135.035C97.4275 136.43 97.6814 137.814 98.0214 139.177C98.1508 139.699 98.2927 140.217 98.4465 140.732C98.5699 141.147 98.7257 141.604 99.116 141.844C99.3106 141.963 99.5406 142.008 99.7671 142.038C99.9896 142.066 100.215 142.082 100.437 142.049C100.674 142.014 100.927 141.921 101.085 141.735C101.264 141.523 101.383 141.247 101.46 140.983C101.597 140.513 101.609 140.017 101.614 139.529C101.631 137.232 101.471 134.937 101.468 132.639C101.466 130.869 101.56 129.085 101.895 127.35L101.352 128.329" fill="#DB3029"/>
<path d="M102.836 112.856C103.047 112.747 104.13 112.203 104.122 111.909C104.115 111.711 104.649 111.547 104.786 111.549C105.035 111.554 105.285 111.714 105.486 111.858C105.98 112.211 106.344 112.754 106.569 113.334C106.877 114.132 106.951 115.008 106.999 115.87C107.142 118.438 107.075 121.019 106.803 123.575C106.666 124.865 106.475 126.15 106.233 127.423C106.113 128.06 105.979 128.694 105.832 129.324C105.691 129.93 105.565 130.12 105.057 130.441C103.965 131.127 101.997 131.036 101.216 129.8C100.375 128.471 100.725 126.399 100.457 124.904C100.066 122.73 98.6194 121.136 97.9548 119.071C97.466 117.556 97.5327 116.125 97.7886 114.579C97.909 113.849 98.135 112.102 98.8792 111.675C99.0768 111.562 100.415 111.258 101.498 112.333C102.131 112.961 102.057 113.257 102.836 112.856" fill="#F5554F"/>
<path d="M95.4023 106.855C95.3545 106.472 95.2973 106.09 95.2306 105.71C94.9105 103.887 94.3645 102.107 94.135 100.268C93.9573 98.8397 93.8289 97.0587 94.9618 95.9556C95.1465 95.7754 95.3585 95.6261 95.5825 95.4996C97.7842 94.2567 99.8898 95.7699 101.953 96.5136C103.309 97.0014 104.609 97.6421 105.822 98.4181C106.245 98.6884 106.678 98.8731 106.962 99.2937C107.263 99.7392 107.425 100.221 107.456 100.76C107.49 101.371 107.378 101.98 107.276 102.585C106.682 106.101 106.422 109.697 106.846 113.238C107.028 114.763 107.209 118.928 107.209 118.928C106.702 119.148 106.378 119.357 103.918 119.4C98.8385 119.491 96.0295 118.211 95.7368 117.944C95.4441 117.676 95.5472 117.06 95.5367 116.691C95.5049 115.585 95.5263 114.48 95.5522 113.375C95.6034 111.202 95.6741 109.018 95.4023 106.855" fill="#E4E3EE"/>
<path d="M105.758 130.339C105.662 131.452 105.574 132.566 105.496 133.681C105.434 134.562 105.378 135.444 105.333 136.327C105.297 137.006 105.267 137.686 105.243 138.366C105.115 142.089 105.508 142.927 103.753 143.409C103.359 143.517 102.941 143.55 102.546 143.452C101.403 143.169 101.205 142.165 101.064 140.919C100.985 140.219 100.949 139.376 100.926 138.668C100.907 138.07 100.894 137.471 100.884 136.873C100.87 136.063 100.861 135.253 100.853 134.443C100.843 133.375 100.834 132.307 100.827 131.239C100.817 129.873 100.7 128.479 100.691 127.113C100.689 126.915 100.815 126.709 100.973 126.605C101.178 126.469 105.292 127.973 105.71 128.439C105.71 128.439 105.876 128.963 105.758 130.339" fill="#F5554F"/>
<path d="M102.504 94.721C102.583 94.1754 102.995 94.3019 102.787 93.8076C102.61 93.3875 102.341 93.0012 101.981 92.7224C101.621 92.4437 101.166 92.2789 100.711 92.3038C100.554 92.3128 100.449 92.4024 100.294 92.4029C99.8644 92.4044 99.4329 92.3222 99.0043 92.3844C98.5777 92.4462 98.184 92.4775 98.184 92.9584C98.1844 93.6 98.2138 94.2173 98.0082 94.848C97.8987 95.1849 97.733 95.51 97.7031 95.8629C97.6454 96.5573 98.1526 97.2049 98.7798 97.5081C99.5503 97.8809 100.423 97.8471 101.243 97.7276C101.654 97.6684 102.234 97.5857 102.476 97.1935C102.657 96.8978 102.58 96.5105 102.541 96.187C102.482 95.6972 102.432 95.2128 102.504 94.721" fill="#F5BFA6"/>
<path d="M101.579 86.5231L99.7913 87.5615C99.9182 87.4883 100.092 87.4983 100.285 87.6088L102.072 86.5704C101.881 86.4594 101.706 86.4494 101.579 86.5231Z" fill="#1393F2"/>
<path d="M100.285 87.6088L102.072 86.5704C101.881 86.4594 101.706 86.4494 101.579 86.5231L99.7913 87.5615C99.9182 87.4883 100.092 87.4983 100.285 87.6088Z" fill="#78819C"/>
<path d="M104.345 87.7487C104.604 88.0638 104.806 88.4187 104.869 88.8349C105.007 89.7622 104.634 90.715 104.835 91.6354C105.03 92.5269 104.648 94.5514 102.89 95.07C102.001 95.3324 100.246 95.0253 99.6813 94.7545C98.9237 94.3916 98.4234 93.6574 97.9749 92.9465C94.3033 87.1161 101.855 84.7183 104.345 87.7487Z" fill="#F5BFA6"/>
<path d="M96.302 90.3332C96.3259 90.5054 96.3498 90.6782 96.3832 90.8494C96.408 90.9793 96.4384 91.1067 96.4792 91.2327C96.5131 91.3412 96.5544 91.4472 96.6017 91.5498C96.7759 91.94 97.0243 92.2974 97.2712 92.6484C97.6122 93.1347 97.977 93.6399 98.5131 93.8973C98.7441 94.0093 98.997 94.0685 99.2474 94.1238C99.9413 94.2776 100.967 94.3099 101.501 93.734C101.738 93.4786 101.834 93.1163 101.877 92.7773C101.919 92.4433 101.93 92.1585 102.021 91.8225C102.043 91.7399 102.065 91.6583 102.09 91.5766C102.131 91.4457 102.177 91.3173 102.245 91.1983C102.355 91.0062 102.522 90.8364 102.734 90.7717C103.098 90.6612 103.534 90.8673 103.85 90.6572C104.013 90.5487 104.095 90.3571 104.169 90.1769C104.243 89.9977 104.308 89.7986 104.381 89.6025C104.479 89.3431 104.591 89.0873 104.751 88.8842C104.837 88.7761 104.937 88.6776 105.005 88.5576C105.098 88.3938 105.205 88.241 105.212 88.0539C105.248 87.1997 104.544 86.3559 103.955 85.8119C103.638 85.5197 103.286 85.2559 102.89 85.0846C102.542 84.9358 102.166 84.8616 101.793 84.8084C100.682 84.6486 99.4938 84.6745 98.5146 85.22C98.2558 85.3639 98.0059 85.553 97.8805 85.8228C97.8526 85.8821 97.8312 85.9463 97.7884 85.9975C97.7316 86.0657 97.645 86.1001 97.5644 86.1384C97.2981 86.2624 97.0795 86.4192 96.9013 86.6028C96.0029 87.5272 96.1318 89.1032 96.302 90.3332" fill="#02196A"/>
<path d="M102.336 90.3735C101.632 90.3138 101.439 91.1854 101.911 91.8693C102.049 92.0689 102.295 92.2486 102.478 92.4089C103.722 93.506 104.059 92.3477 103.664 91.9749C102.747 91.1082 103.222 90.4482 102.336 90.3735" fill="#F5BFA6"/>
<path d="M102.527 91.706C102.447 91.6308 101.652 91.143 102.204 90.8289C102.357 90.7423 102.524 90.8777 102.544 91.0385C102.555 91.1221 102.528 91.2067 102.539 91.2903C102.545 91.3396 102.565 91.3864 102.59 91.4292C102.66 91.5467 102.901 91.6622 102.85 91.8314C102.805 91.9813 102.572 91.7493 102.527 91.706Z" fill="#E9A27F"/>
<path d="M135.546 71.8527L134.041 70.9701L138.583 64.2357L140.088 65.1182L135.546 71.8527Z" fill="#B7B6E3"/>
<path d="M134.184 72.5311L132.679 71.649C133.042 71.8616 133.631 71.5769 134.041 70.9701L135.546 71.8526C135.136 72.4589 134.547 72.7437 134.184 72.5311" fill="#B7B6E3"/>
<path d="M134.184 72.5312L132.679 71.6491C132.838 71.7422 133.041 71.7397 133.253 71.6566L134.758 72.5386C134.546 72.6218 134.343 72.6248 134.184 72.5312Z" fill="#B7B6E3"/>
<path d="M134.758 72.5387L133.253 71.6566C133.381 71.6064 133.513 71.5262 133.639 71.4207L135.145 72.3028C135.017 72.4088 134.886 72.4884 134.758 72.5387Z" fill="#B7B6E3"/>
<path d="M135.145 72.3027L133.639 71.4207C133.782 71.3017 133.919 71.1504 134.04 70.9702L135.546 71.8527C135.424 72.0324 135.287 72.1843 135.145 72.3027Z" fill="#B7B6E3"/>
<path d="M105.489 108.652L103.984 107.77L126.382 74.563L127.888 75.4456L105.489 108.652Z" fill="#B7B6E3"/>
<path d="M105.291 112.947L103.787 112.065C103.724 112.029 103.665 111.986 103.608 111.937C102.759 111.203 102.927 109.337 103.984 107.77L105.489 108.652C104.432 110.22 104.264 112.085 105.113 112.819C105.169 112.868 105.229 112.911 105.291 112.947" fill="#B7B6E3"/>
<path d="M105.292 112.947L103.787 112.065C103.725 112.029 103.665 111.986 103.608 111.937C103.313 111.682 103.141 111.291 103.086 110.823L104.592 111.705C104.646 112.173 104.819 112.564 105.114 112.819C105.17 112.868 105.23 112.911 105.292 112.947Z" fill="#B7B6E3"/>
<path d="M104.591 111.705L103.086 110.823C103.047 110.49 103.067 110.118 103.145 109.73L104.65 110.612C104.572 111 104.552 111.372 104.591 111.705Z" fill="#B7B6E3"/>
<path d="M104.65 110.612L103.145 109.73C103.273 109.091 103.555 108.406 103.984 107.77L105.489 108.652C105.06 109.288 104.778 109.974 104.65 110.612Z" fill="#B7B6E3"/>
<path d="M129.961 66.5394L128.457 65.6574C130.336 62.8708 132.819 61.1853 134.89 61.0435L136.395 61.926C134.324 62.0674 131.841 63.7529 129.961 66.5394Z" fill="#B7B6E3"/>
<path d="M129.961 66.5394L128.457 65.6574C129.211 64.5389 130.062 63.5981 130.945 62.8633L132.45 63.7454C131.567 64.4801 130.716 65.4214 129.961 66.5394Z" fill="#B7B6E3"/>
<path d="M132.45 63.7455L130.945 62.8634C131.724 62.2148 132.528 61.727 133.311 61.4184L134.816 62.3009C134.033 62.609 133.229 63.0974 132.45 63.7455Z" fill="#B7B6E3"/>
<path d="M134.816 62.3008L133.311 61.4182C133.852 61.2052 134.383 61.0782 134.89 61.0434L136.395 61.926C135.889 61.9608 135.357 62.0877 134.816 62.3008Z" fill="#B7B6E3"/>
<path d="M127.887 75.4457L126.382 74.5631C125.649 72.233 126.388 68.7237 128.456 65.6574L129.961 66.5394C127.893 69.6058 127.155 73.1156 127.887 75.4457Z" fill="#B7B6E3"/>
<path d="M127.887 75.4457L126.382 74.5631C126.276 74.2256 126.2 73.8627 126.156 73.4804L127.661 74.363C127.706 74.7453 127.781 75.1077 127.887 75.4457Z" fill="#B7B6E3"/>
<path d="M127.661 74.363L126.156 73.4805C126.056 72.6263 126.108 71.6731 126.307 70.676L127.812 71.5581C127.613 72.5551 127.561 73.5088 127.661 74.363" fill="#B7B6E3"/>
<path d="M127.812 71.558L126.307 70.6759C126.634 69.0402 127.358 67.286 128.456 65.6573L129.961 66.5394C128.862 68.1681 128.139 69.9223 127.812 71.558Z" fill="#B7B6E3"/>
<path d="M129.961 66.5394C131.842 63.7528 134.324 62.0674 136.395 61.926L131.853 68.6604C131.415 69.31 131.346 70.0881 131.698 70.3927L134.111 72.4789C134.462 72.7825 135.108 72.5018 135.546 71.8527L140.088 65.1182C140.513 67.4175 139.731 70.5724 137.851 73.359C135.857 76.3153 133.187 78.0311 131.047 77.9833L108.566 111.312C107.509 112.88 105.963 113.554 105.113 112.819C104.264 112.085 104.432 110.22 105.489 108.652L127.888 75.4456C127.155 73.1155 127.893 69.6057 129.961 66.5394" fill="#919DD6"/>
<path d="M118.955 95.6921C118.821 95.7544 118.618 95.7872 118.609 95.608C118.592 95.2979 118.777 94.9943 118.721 94.6891C118.702 94.5806 118.631 94.4631 118.52 94.4567C118.389 94.4482 118.307 94.5915 118.258 94.7135C118.143 95.0067 118.035 95.3074 117.855 95.5667C117.72 95.7603 117.548 95.9246 117.389 96.0983C117.229 96.2725 117.079 96.4617 116.999 96.6837C116.922 96.8978 116.956 97.065 116.997 97.2781C117.031 97.4538 116.95 97.6434 116.953 97.8241C116.957 98.0884 116.974 98.3567 117.03 98.6166C117.068 98.7928 117.126 99.0402 117.291 99.1457C117.476 99.2637 117.681 99.1178 117.817 98.9914C118.031 98.7928 118.115 98.5215 118.288 98.297C118.368 98.192 118.406 98.0735 118.482 97.972C118.572 97.852 118.726 97.7823 118.853 97.7086C119.144 97.5394 119.406 97.3194 119.625 97.063C119.861 96.7862 120.022 96.5264 120.089 96.17C120.132 95.9331 120.131 95.6956 120.145 95.4552C120.161 95.1859 120.131 94.9186 119.988 94.6866C119.802 94.386 119.751 94.7508 119.651 94.9002C119.48 95.1535 119.28 95.4497 119.04 95.6419L118.955 95.6921" fill="#F5BFA6"/>
<path d="M117.768 97.8347C117.587 97.6764 117.375 97.5644 117.167 97.539C116.664 97.4783 116.26 97.7088 115.925 97.987C114.811 98.9129 113.991 100.42 112.544 100.856C111.934 101.04 111.241 100.759 110.717 100.461C109.989 100.048 109.205 99.7482 108.454 99.3818C107.963 99.1434 107.472 98.8552 106.96 98.663C106.273 98.4052 105.522 98.2514 104.872 98.6346C104.271 98.9886 103.859 99.6023 103.705 100.305C103.545 101.036 103.778 101.84 104.303 102.373C104.793 102.87 105.479 103.111 106.139 103.336C106.867 103.585 107.589 103.85 108.316 104.099C108.691 104.227 109.067 104.351 109.446 104.465C109.796 104.571 110.133 104.599 110.486 104.676C111.291 104.852 112.238 104.718 113.024 104.492C113.562 104.339 114.008 104.069 114.438 103.72C115.822 102.596 116.985 101.289 117.883 99.7392C118.044 99.4629 118.271 99.11 118.268 98.777C118.266 98.452 118.055 98.0851 117.768 97.8347" fill="#EBEBF1"/>
<path d="M142.459 47.4028L136.983 29.5237L142.459 47.4028Z" fill="#1393F2"/>
<path d="M141.944 47.5605L136.468 29.6814L137.497 29.3663L142.973 47.2454L141.944 47.5605Z" fill="#171C29"/>
<path d="M148.981 103.546C143.957 100.442 142.827 96.2752 142.344 94.4957C142.735 96.2031 144.071 97.901 146.35 99.2729C152.046 102.701 161.474 102.796 167.411 99.4859C169.96 98.0643 171.45 96.2459 171.871 94.3628C171.485 95.8392 170.901 98.0712 168.675 100.65C167.832 101.627 165.974 103.444 163.005 104.635C158.49 106.447 152.985 106.02 148.981 103.546" fill="#919DD6"/>
<path d="M167.507 62.8344C173.06 66.1759 172.869 71.5007 167.082 74.7273C161.295 77.9543 152.103 77.8613 146.551 74.5197C140.999 71.1781 141.19 65.8534 146.977 62.6268C152.763 59.3997 161.955 59.4928 167.507 62.8344Z" fill="#E4E3EE"/>
<path d="M142.333 94.4473L137.856 74.8847C138.378 77.1655 140.114 79.3716 143.076 81.1547C150.476 85.6083 162.729 85.7322 170.442 81.4314C173.755 79.5842 175.692 77.2212 176.237 74.7737L171.871 94.3622C171.451 96.2458 169.961 98.0642 167.411 99.4858C161.475 102.796 152.046 102.7 146.351 99.2728C144.071 97.9009 142.735 96.203 142.333 94.4473" fill="#B7B6E3"/>
<path d="M144.596 62.3147C152.157 58.2106 162.862 58.3325 170.051 62.6039C169.41 62.2182 168.514 62.2485 167.507 62.8095C161.955 59.4679 152.763 59.3749 146.976 62.6019C141.19 65.8285 140.999 71.1533 146.551 74.4949C152.103 77.8364 161.295 77.9295 167.082 74.7024C172.869 71.4753 173.059 66.1511 167.507 62.8095C168.514 62.2485 169.41 62.2182 170.051 62.6039C171.557 63.5776 173.831 65.0485 175.414 68.1432C176.891 71.0308 176.442 73.6208 176.251 74.7268C175.688 77.2386 173.752 79.5991 170.442 81.4443C162.728 85.7456 150.476 85.6217 143.076 81.1676C140.116 79.3865 138.381 77.1829 137.858 74.9045C137.672 73.9095 137.498 72.9702 137.674 71.4987C137.897 69.6535 138.633 68.2622 138.663 68.2039C139.214 67.175 140.677 64.4417 144.596 62.3147" fill="#DAD9E8"/>
<path d="M165.087 38.6877C169.346 41.2508 169.2 45.335 164.761 47.8105C160.322 50.2854 153.271 50.2143 149.013 47.6512C144.754 45.0882 144.9 41.0039 149.339 38.5289C153.778 36.0535 160.828 36.1247 165.087 38.6877" fill="#EBEBF1"/>
<path d="M143.387 69.2483C136.533 65.0067 135.028 59.3928 134.973 55.4309C134.981 58.6127 137.025 61.794 141.129 64.2635C149.583 69.3518 163.581 69.4937 172.393 64.5796C176.928 62.0509 179.207 58.676 179.197 55.302C179.12 57.3733 179.006 58.4475 178.174 60.7676C177.521 62.587 176.354 64.1341 175.727 64.9654C175.434 65.3537 172.716 68.8182 167.465 70.8631C158.363 74.4077 148.813 72.6063 143.387 69.2483Z" fill="#B7B6E3"/>
<path d="M144.02 37.8888C148.034 35.7041 152.541 34.6274 157.416 34.6896C162.423 34.7538 166.917 35.945 170.773 38.2313C169.329 37.3622 167.314 37.4463 165.087 38.6878C160.829 36.1247 153.778 36.0535 149.339 38.529C144.9 41.0039 144.754 45.0882 149.013 47.6513C153.271 50.2143 160.322 50.2855 164.761 47.8105C169.2 45.3351 169.346 41.2508 165.087 38.6878C167.314 37.4463 169.329 37.3622 170.773 38.2313C172.806 39.5435 178.99 43.5361 179.188 52.0486C179.197 55.4231 176.919 58.798 172.384 61.3267C163.571 66.2408 149.574 66.0989 141.119 61.0106C137.016 58.5406 134.972 55.3598 134.963 52.1776C135.009 50.9411 135.061 49.5388 135.602 47.8255C136.242 45.796 136.794 44.9249 137.709 43.4819C138.431 42.3425 140.679 39.7072 144.02 37.8888" fill="#E4E3EE"/>
<path d="M161.425 64.6648C154.265 65.5061 146.549 64.2785 141.119 61.0106C137.039 58.5546 134.996 55.3957 134.964 52.2318C134.958 50.1765 135.803 48.279 137.228 46.7617C137.256 49.5991 139.089 52.4329 142.749 54.6356C147.619 57.5665 154.539 58.6676 160.961 57.913C161.247 60.2341 161.419 62.61 161.425 64.6648Z" fill="#042F8F"/>
<path d="M134.972 55.431L134.963 52.1775C134.972 55.3598 137.016 58.5406 141.119 61.0106C149.574 66.0988 163.571 66.2407 172.384 61.3267C176.919 58.7979 179.197 55.423 179.188 52.0486L179.197 55.3021C179.207 58.676 176.928 62.0509 172.393 64.5796C163.581 69.4937 149.583 69.3518 141.128 64.2635C137.025 61.7941 134.981 58.6128 134.972 55.431" fill="#DAD9E8"/>
<path d="M138.556 55.5251C138.122 56.7536 137.377 56.8357 136.861 55.7122C136 53.8366 136.878 51.5702 137.995 51.8933C138.198 51.9525 138.304 52.0695 138.417 52.1934C139.133 53.2104 138.748 54.984 138.556 55.5251" fill="#05D4F5"/>
<path d="M151.09 61.0862C150.763 62.9305 148.446 63.2406 147.275 61.597C146.053 59.8806 147.392 57.903 149.103 58.116C149.166 58.1235 149.249 58.1419 149.312 58.1533C150.819 58.5899 151.259 60.1315 151.09 61.0862" fill="#05D4F5"/>
<path d="M171.741 53.1551C171.741 52.063 170.974 51.6205 170.029 52.1665C169.083 52.7126 168.317 54.0402 168.317 55.1323C168.317 56.2239 169.083 56.6664 170.029 56.1209C170.974 55.5748 171.741 54.2468 171.741 53.1551Z" fill="#1393F2"/>
<path d="M170.252 54.1676L182.733 44.7994L170.252 54.1676Z" fill="#1393F2"/>
<path d="M170.252 54.7057C170.089 54.7057 169.927 54.631 169.822 54.4901C169.643 54.2527 169.691 53.9152 169.929 53.737L182.41 44.3693C182.648 44.1911 182.985 44.2389 183.164 44.4763C183.342 44.7143 183.294 45.0513 183.056 45.23L170.575 54.5977C170.478 54.6704 170.365 54.7057 170.252 54.7057" fill="#171C29"/>
<path d="M185.902 44.1279C185.902 42.525 184.603 41.2258 183.001 41.2258C181.398 41.2258 180.099 42.525 180.099 44.1279C180.099 45.7302 181.398 47.0294 183.001 47.0294C184.603 47.0294 185.902 45.7302 185.902 44.1279Z" fill="#1393F2"/>
<path d="M139.62 29.5236C139.62 27.9208 138.321 26.6221 136.719 26.6221C135.116 26.6221 133.817 27.9208 133.817 29.5236C133.817 31.1265 135.116 32.4257 136.719 32.4257C138.321 32.4257 139.62 31.1265 139.62 29.5236Z" fill="#1393F2"/>
<path d="M174.309 73.8377L176.422 75.0657C175.525 74.5445 174.283 74.6177 172.912 75.4092L170.799 74.1817C172.17 73.3902 173.412 73.3165 174.309 73.8377" fill="#EBEBF1"/>
<path d="M172.912 75.4092L170.799 74.1817C172.17 73.3902 173.412 73.3165 174.309 73.8377L176.422 75.0657C175.525 74.5445 174.283 74.6177 172.912 75.4092" fill="#EBEBF1"/>
<path d="M173.401 77.4736C175.268 76.3949 176.79 77.263 176.795 79.4089C176.802 81.5534 175.29 84.1717 173.423 85.2484C171.557 86.3275 170.034 85.4604 170.029 83.3155C170.021 81.1711 171.535 78.5498 173.401 77.4736Z" fill="#05D4F5"/>
<path d="M169.432 87.0931L167.319 85.8651C166.433 85.3509 165.884 84.2568 165.88 82.7012C165.871 79.5702 168.074 75.7553 170.799 74.1818L172.911 75.4093C170.187 76.9828 167.984 80.7983 167.993 83.9293C167.997 85.4843 168.546 86.5784 169.432 87.0931" fill="#EBEBF1"/>
<path d="M169.433 87.0931L167.32 85.8651C166.534 85.4082 166.013 84.4942 165.903 83.206L168.016 84.434C168.125 85.7223 168.646 86.6362 169.433 87.0931Z" fill="#EBEBF1"/>
<path d="M168.015 84.434L165.902 83.2059C165.888 83.0437 165.881 82.8754 165.88 82.7012C165.872 80.0013 167.509 76.7931 169.707 74.9518L171.82 76.1798C169.622 78.0211 167.985 81.2293 167.993 83.9292C167.993 84.1034 168.001 84.2717 168.015 84.434Z" fill="#EBEBF1"/>
<path d="M171.82 76.1798L169.707 74.9518C170.058 74.6576 170.423 74.3983 170.799 74.1817L172.911 75.4093C172.536 75.6263 172.171 75.8856 171.82 76.1798" fill="#EBEBF1"/>
<path d="M173.401 77.4736L172.911 75.4093C175.637 73.8363 177.852 75.1007 177.861 78.2317C177.87 81.3632 175.669 85.1757 172.944 86.7492C170.219 88.3222 168.002 87.0603 167.993 83.9293C167.984 80.7983 170.187 76.9828 172.911 75.4093L173.401 77.4736C171.535 78.5498 170.021 81.1711 170.029 83.3155C170.034 85.4604 171.557 86.3276 173.423 85.2484C175.29 84.1717 176.802 81.5534 176.795 79.409C176.79 77.263 175.268 76.3949 173.401 77.4736Z" fill="#EBEBF1"/>
<path d="M173.401 77.4736L172.911 75.4093C175.637 73.8363 177.852 75.1007 177.861 78.2317C177.87 81.3632 175.669 85.1757 172.944 86.7492C170.219 88.3222 168.002 87.0603 167.993 83.9293C167.984 80.7983 170.187 76.9828 172.911 75.4093L173.401 77.4736C171.535 78.5498 170.021 81.1711 170.029 83.3155C170.034 85.4604 171.557 86.3276 173.423 85.2484C175.29 84.1717 176.802 81.5534 176.795 79.409C176.79 77.263 175.268 76.3949 173.401 77.4736Z" fill="#C4C3EC"/>
<path d="M216.601 176.574V179.262L199.34 189.292V186.604L216.601 176.574Z" fill="#919DD6"/>
<path d="M199.34 186.604V189.292L181.967 179.262V176.574L199.34 186.604Z" fill="#B7B6E3"/>
<path d="M216.497 176.574L199.237 186.604L181.863 176.574L199.124 166.543L216.497 176.574Z" fill="#D8D5EE"/>
<path d="M216.921 173.001V175.689L199.66 185.719V183.032L216.921 173.001Z" fill="#B7B6E3"/>
<path d="M199.66 183.032V185.719L182.287 175.689V173.002L199.66 183.032Z" fill="#B7B6E3"/>
<path d="M216.817 173.001L199.557 183.032L182.183 173.002L199.444 162.97L216.817 173.001Z" fill="#D8D5EE"/>
<path d="M220.138 170.939V173.627L202.878 183.657V180.97L220.138 170.939Z" fill="#919DD6"/>
<path d="M202.878 180.97V183.657L185.504 173.627V170.939L202.878 180.97" fill="#B7B6E3"/>
<path d="M220.138 170.939L202.878 180.97L185.504 170.939L202.765 160.909L220.138 170.939Z" fill="#D8D5EE"/>
<path d="M220.138 167.515V170.202L202.878 180.233V177.545L220.138 167.515Z" fill="#919DD6"/>
<path d="M202.878 177.545V180.233L185.504 170.202V167.515L202.878 177.545Z" fill="#B7B6E3"/>
<path d="M220.138 167.515L202.878 177.545L185.504 167.515L202.765 157.484L220.138 167.515Z" fill="#D8D5EE"/>
<path d="M220.138 163.638V166.326L202.878 176.357V173.669L220.138 163.638Z" fill="#919DD6"/>
<path d="M202.878 173.669V176.357L185.504 166.326V163.638L202.878 173.669" fill="#B7B6E3"/>
<path d="M220.138 163.638L202.878 173.669L185.504 163.638L202.765 153.607L220.138 163.638Z" fill="#E4E3EE"/>
<defs>
<linearGradient id="paint0_linear" x1="169.833" y1="49.4849" x2="152.871" y2="106.895" gradientUnits="userSpaceOnUse">
<stop stop-color="#4BAAE3"/>
<stop offset="0.268198" stop-color="#4BAAE3"/>
<stop offset="1" stop-color="#1856DD"/>
</linearGradient>
</defs>
</svg>
