<svg width="20" height="20" viewBox="0 0 20 20" fill="none" xmlns="http://www.w3.org/2000/svg">
<g clip-path="url(#clip0)">
<path d="M4.59233 9.16602H0.425652C0.195652 9.16602 0.00897217 9.3527 0.00897217 9.5827V19.5827C0.00897217 19.8127 0.195652 19.9993 0.425652 19.9993H4.59233C4.82233 19.9993 5.00901 19.8127 5.00901 19.5827V9.58266C5.00897 9.35266 4.82315 9.16602 4.59233 9.16602Z" fill="#8E9292"/>
<path d="M12.0753 0H7.90862C7.67862 0 7.49194 0.18668 7.49194 0.41668V19.5834C7.49194 19.8134 7.67862 20 7.90862 20H12.0753C12.3053 20 12.492 19.8134 12.492 19.5834V0.41668C12.492 0.18668 12.3053 0 12.0753 0Z" fill="#8E9292"/>
<path d="M19.5753 4.16602H15.4087C15.1787 4.16602 14.992 4.3527 14.992 4.5827V19.5827C14.992 19.8127 15.1787 19.9994 15.4087 19.9994H19.5753C19.8053 19.9994 19.992 19.8127 19.992 19.5827V4.5827C19.992 4.35266 19.8053 4.16602 19.5753 4.16602Z" fill="#8E9292"/>
</g>
<defs>
<clipPath id="clip0">
<rect width="20" height="20" fill="white"/>
</clipPath>
</defs>
</svg>
