<svg width="22" height="22" viewBox="0 0 22 22" fill="none" xmlns="http://www.w3.org/2000/svg">
<path d="M18.2316 7.73398C18.1887 7.68242 18.1672 7.61367 18.1672 7.54922C17.5312 6.42773 17.4926 5.05703 16.8566 3.93555C15.0648 4.94102 13.8402 6.73281 12.6715 8.36562C11.9668 9.34961 11.3352 10.3594 10.7551 11.4207C10.1707 12.4863 9.60352 13.5648 8.95039 14.5918C8.85586 14.7379 8.61094 14.8066 8.50781 14.6219C8.19844 14.0504 7.85039 13.4961 7.45078 12.9805C7.10703 12.5379 6.71602 12.1426 6.36367 11.7086C5.81797 11.034 5.23359 10.2262 4.47734 9.75781C4.20234 10.6602 3.88008 11.5539 3.73828 12.4906C4.79531 13.1738 5.60312 14.1621 6.38086 15.1375C7.2918 16.2805 8.23281 17.3719 9.25547 18.416C9.91719 17.5523 10.3727 16.5469 10.9227 15.6102C11.5715 14.5059 12.3277 13.4875 13.1313 12.4906C13.9348 11.4937 14.8629 10.6129 15.7953 9.74492C16.2336 9.33672 16.7492 9.00156 17.2176 8.62773C17.5699 8.34414 17.9137 8.05195 18.2359 7.73828C18.2359 7.74258 18.2359 7.73828 18.2316 7.73398Z" fill="#8E9292"/>
<path d="M18.743 7.31714H18.6227C17.9223 6.1269 17.9266 4.62729 17.1617 3.45425C17.0801 3.32534 16.9297 3.32104 16.8051 3.3855C14.8457 4.37808 13.5309 6.29448 12.2848 8.03042C11.5715 9.02729 10.927 10.05 10.334 11.1242C9.80547 12.0824 9.29844 13.0492 8.72695 13.9859C8.46914 13.539 8.18555 13.1093 7.87188 12.7011C7.51953 12.2371 7.10703 11.8289 6.7418 11.3777C6.08867 10.5742 5.39258 9.62026 4.43438 9.16479C4.27539 9.08745 4.11641 9.18628 4.06914 9.34526C3.77695 10.3636 3.39024 11.3648 3.23125 12.4132C3.23125 12.4175 3.23125 12.4218 3.23125 12.4304C3.14531 12.5464 3.13672 12.7355 3.3 12.8343C4.43867 13.5046 5.27656 14.5874 6.08867 15.6101C7.03399 16.8003 8.03086 17.9347 9.10508 19.0089C9.20391 19.1078 9.38008 19.0863 9.46602 18.9874C10.2051 18.1023 10.6992 17.0539 11.2621 16.057C11.8938 14.9441 12.6371 13.8957 13.4578 12.9117C14.2828 11.9277 15.1766 11.0339 16.1176 10.1617C16.5645 9.74487 17.0887 9.40112 17.5699 9.0187C17.9566 8.70933 18.3305 8.38706 18.6828 8.03901C18.7816 8.01753 18.8633 7.94878 18.8805 7.83706C18.9063 7.81128 18.932 7.7812 18.9578 7.75542C19.1211 7.56636 18.9578 7.31714 18.743 7.31714ZM17.2176 8.63628C16.7492 9.01011 16.2379 9.34526 15.7953 9.75347C14.8586 10.6214 13.9305 11.5023 13.1313 12.4992C12.3277 13.496 11.5715 14.5101 10.9227 15.6187C10.3727 16.5554 9.91719 17.5609 9.25547 18.4246C8.23281 17.3847 7.2875 16.289 6.38086 15.146C5.60313 14.1707 4.79102 13.1781 3.73828 12.4992C3.88008 11.5625 4.20234 10.6687 4.47734 9.76636C5.23789 10.2347 5.81797 11.0425 6.36367 11.7171C6.71602 12.1511 7.10703 12.5464 7.45078 12.989C7.85039 13.5046 8.19844 14.0589 8.50781 14.6304C8.61094 14.8195 8.85586 14.7464 8.95039 14.6003C9.60781 13.5734 10.1707 12.4949 10.7551 11.4292C11.3352 10.3679 11.9668 9.35815 12.6715 8.37417C13.8402 6.74136 15.0691 4.94526 16.8566 3.94409C17.4926 5.06558 17.5313 6.43628 18.1672 7.55776C18.1672 7.62222 18.1887 7.69097 18.2316 7.74253C18.2316 7.74683 18.2359 7.75112 18.2359 7.75112C17.9137 8.0605 17.5699 8.35268 17.2176 8.63628Z" fill="#F4F5FA"/>
</svg>
