<svg width="22" height="22" viewBox="0 0 22 22" fill="none" xmlns="http://www.w3.org/2000/svg">
<g clip-path="url(#clip0)">
<path d="M21.6553 10.3496C21.6332 10.3347 21.6103 10.321 21.5867 10.3085L20.0255 9.46777L11.3677 14.0516C11.1377 14.1735 10.8623 14.1735 10.6323 14.0516L1.97454 9.46777L0.413309 10.3085C0.0338654 10.5099 -0.110509 10.9808 0.0909062 11.3602C0.103428 11.3838 0.117148 11.4067 0.132018 11.4289L11 17.1827L21.868 11.4289C22.1073 11.0722 22.0121 10.5889 21.6553 10.3496Z" fill="#8E9292"/>
<path d="M21.9049 15.3415C21.8321 15.2067 21.7215 15.0961 21.5867 15.0233L20.0255 14.1826L11.3677 18.7665C11.1377 18.8883 10.8623 18.8883 10.6323 18.7665L1.97448 14.1826L0.413241 15.0233C0.0313565 15.2294 -0.111085 15.7061 0.095027 16.0879C0.167813 16.2228 0.278442 16.3334 0.413241 16.4062L10.6275 21.9062C10.86 22.0313 11.1399 22.0313 11.3724 21.9062L21.5867 16.4062C21.9685 16.2 22.111 15.7234 21.9049 15.3415Z" fill="#8E9292"/>
<path d="M21.6553 5.63598C21.6332 5.62111 21.6103 5.60739 21.5867 5.59487L11.3724 0.0948594C11.1399 -0.0303177 10.8601 -0.0303177 10.6276 0.0948594L0.413309 5.59487C0.0338654 5.79629 -0.110509 6.26716 0.0909062 6.64661C0.103428 6.67018 0.117148 6.69311 0.132018 6.7153L11 12.4691L21.868 6.7153C22.1073 6.35855 22.0121 5.87533 21.6553 5.63598Z" fill="#8E9292"/>
</g>
<defs>
<clipPath id="clip0">
<rect width="22" height="22" fill="white"/>
</clipPath>
</defs>
</svg>
