<svg width="32" height="32" viewBox="0 0 32 32" fill="none" xmlns="http://www.w3.org/2000/svg">
<g clip-path="url(#clip0)">
<path d="M17.8805 10.6875L9.07709 19.4916C9.0328 19.536 9.00082 19.5921 8.98559 19.6523L8.00981 23.5689C7.98062 23.6868 8.01527 23.8122 8.10131 23.8982C8.16641 23.9633 8.25512 23.9994 8.34586 23.9994C8.37365 23.9994 8.40208 23.9959 8.42974 23.989L12.3463 23.0131C12.4073 22.9978 12.4628 22.966 12.5071 22.9217L21.3113 14.1183L17.8805 10.6875Z" fill="#8E9292"/>
<path d="M23.4923 9.48755L22.5124 8.50758C21.8574 7.85262 20.7159 7.85326 20.0617 8.50758L18.8613 9.70798L22.292 13.1386L23.4923 11.9382C23.8195 11.6112 23.9997 11.1759 23.9997 10.7129C23.9997 10.25 23.8195 9.81471 23.4923 9.48755Z" fill="#8E9292"/>
</g>
<rect x="0.2" y="0.2" width="31.6" height="31.6" rx="4.8" stroke="#F4F5FA" stroke-width="0.4"/>
<defs>
<clipPath id="clip0">
<rect width="16" height="16" fill="white" transform="translate(8 8)"/>
</clipPath>
</defs>
</svg>
