<svg width="32" height="32" viewBox="0 0 32 32" fill="none" xmlns="http://www.w3.org/2000/svg">
<g clip-path="url(#clip0)">
<path d="M11.1941 23.4906C11.2362 24.3379 11.9304 24.9997 12.7803 24.9997H19.2197C20.0696 24.9997 20.7639 24.3379 20.8059 23.4906L21.7334 12.8232H10.2666L11.1941 23.4906ZM17.5883 15.4703H18.6471V21.2938H17.5883V15.4703ZM15.4706 15.4703H16.5294V21.2938H15.4706V15.4703ZM13.353 15.4703H14.4118V21.2938H13.353V15.4703Z" fill="#8E9292"/>
<path d="M18.6471 9.64706V8.58824C18.6471 7.71252 17.9347 7 17.0589 7H14.9412C14.0655 7 13.353 7.71252 13.353 8.58824V9.64706H9.11769V11.7647H22.8824V9.64706H18.6471ZM14.4118 9.64706V8.58824C14.4118 8.29632 14.6493 8.05882 14.9412 8.05882H17.0589C17.3508 8.05882 17.5883 8.29632 17.5883 8.58824V9.64706H14.4118Z" fill="#8E9292"/>
</g>
<rect x="0.2" y="0.2" width="31.6" height="31.6" rx="4.8" stroke="#F4F5FA" stroke-width="0.4"/>
<defs>
<clipPath id="clip0">
<rect width="18" height="18" fill="white" transform="translate(7 7)"/>
</clipPath>
</defs>
</svg>
