<svg width="22" height="22" viewBox="0 0 22 22" fill="none" xmlns="http://www.w3.org/2000/svg">
<path d="M21.9837 4.7395C21.9837 4.71436 22.001 4.68989 21.9999 4.66504L15.2863 11.134L21.9919 17.3963C21.9958 17.3516 21.9837 17.3065 21.9837 17.2608V4.7395Z" fill="#8E9292"/>
<path d="M14.2615 12.1289L11.5208 14.7658C11.3821 14.8992 11.203 14.9661 11.0238 14.9661C10.8483 14.9661 10.6728 14.9021 10.5351 14.7737L7.80182 12.2268L1.05243 18.7324C1.21654 18.7914 1.3927 18.8372 1.57717 18.8372H20.4705C20.7444 18.8372 21.0013 18.7538 21.2247 18.6293L14.2615 12.1289Z" fill="#8E9292"/>
<path d="M11.0159 13.2624L21.2618 3.39256C21.0299 3.25463 20.7599 3.16211 20.4704 3.16211H1.57712C1.20024 3.16211 0.854904 3.30844 0.585938 3.53163L11.0159 13.2624Z" fill="#8E9292"/>
<path d="M0 4.97949V17.2602C0 17.4012 0.0324021 17.5371 0.0675761 17.667L6.73324 11.2481L0 4.97949Z" fill="#8E9292"/>
</svg>
