<svg width="20" height="20" viewBox="0 0 20 20" fill="none" xmlns="http://www.w3.org/2000/svg">
<path d="M20 10C20 15.5229 15.5229 20 10 20C4.47708 20 0 15.5229 0 10C0 4.47708 4.47708 0 10 0C15.5229 0 20 4.47708 20 10Z" fill="url(#paint0_linear)"/>
<path d="M11.7541 11.5991C11.524 11.3714 11.1529 11.3735 10.9255 11.6036C10.6979 11.8337 10.7 12.2047 10.9301 12.4324L11.3767 12.8739H8.74582C7.57791 12.8739 6.62775 13.8241 6.62775 14.992C6.62775 16.1598 7.57242 17.1099 8.73331 17.1099C9.05694 17.1099 9.31924 16.8476 9.31924 16.524C9.31924 16.2004 9.05694 15.9381 8.73331 15.9381C8.21847 15.9381 7.79962 15.5136 7.79962 14.992C7.79962 14.4703 8.22412 14.0458 8.74582 14.0458H11.424L10.9289 14.5382C10.6994 14.7663 10.6985 15.1374 10.9266 15.3668C11.0412 15.482 11.1916 15.5396 11.3421 15.5396C11.4915 15.5396 11.6409 15.4827 11.7553 15.3691L12.6974 14.4322C12.9531 14.178 13.0937 13.8398 13.093 13.4802C13.0926 13.1205 12.9511 12.7828 12.6948 12.5292L11.7541 11.5991Z" fill="white"/>
<path d="M14.4574 3.9834H5.5423C4.3811 3.9834 3.43658 4.92807 3.43658 6.08896V11.9396C3.43658 13.1007 4.38126 14.0452 5.5423 14.0452C5.86578 14.0452 6.12824 13.7829 6.12824 13.4593C6.12824 13.1356 5.86578 12.8733 5.5423 12.8733C5.02731 12.8733 4.60846 12.4545 4.60846 11.9396V6.3746L8.88794 9.03574C9.23096 9.2489 9.61533 9.35556 9.99985 9.35556C10.3844 9.35556 10.7689 9.2489 11.1118 9.03574L15.3912 6.3746V9.40698C15.3912 9.73047 15.6535 9.99292 15.9772 9.99292C16.3008 9.99292 16.5631 9.73047 16.5631 9.40698V6.08896C16.5631 4.92807 15.6186 3.9834 14.4574 3.9834ZM10.4929 8.04056C10.1888 8.22962 9.81094 8.22962 9.50684 8.04056L5.07202 5.28284C5.21027 5.20197 5.37079 5.15527 5.5423 5.15527H14.4574C14.6289 5.15527 14.7894 5.20197 14.9277 5.28284L10.4929 8.04056Z" fill="white"/>
<path d="M15.9773 11.3535C15.6536 11.3535 15.3913 11.616 15.3913 11.9395C15.3913 12.4544 14.9725 12.8731 14.4576 12.8731C14.134 12.8731 13.8717 13.1356 13.8717 13.4591C13.8717 13.7827 14.134 14.045 14.4576 14.045C15.6187 14.045 16.5632 13.1005 16.5632 11.9395C16.5632 11.6158 16.3009 11.3535 15.9773 11.3535Z" fill="white"/>
<defs>
<linearGradient id="paint0_linear" x1="0" y1="10" x2="20" y2="10" gradientUnits="userSpaceOnUse">
<stop stop-color="#CC2B7C"/>
<stop offset="0.231" stop-color="#CC2B7C"/>
<stop offset="0.5138" stop-color="#CC2B7C"/>
<stop offset="0.7773" stop-color="#CC2B7C"/>
<stop offset="1" stop-color="#A41C60"/>
</linearGradient>
</defs>
</svg>
