<svg width="20" height="20" viewBox="0 0 20 20" fill="none" xmlns="http://www.w3.org/2000/svg">
<path d="M17.6562 10.5859C17.6562 11.2332 18.1809 11.7578 18.8281 11.7578C19.4754 11.7578 20 11.2332 20 10.5859V4.72656H17.6562V10.5859Z" fill="#8E9292"/>
<path d="M17.6562 12.9297H8.24219C6.94957 12.9297 5.89844 11.8786 5.89844 10.5859V4.72656H0V16.4844H17.6562V12.9297Z" fill="#8E9292"/>
<path d="M6.45289 17.6562L6.0623 18.8281H4.72656V20H12.9297V18.8281H11.5939L11.2034 17.6562H6.45289Z" fill="#8E9292"/>
<path d="M10 2.96875H13.5156V4.14062H10V2.96875Z" fill="#8E9292"/>
<path d="M7.07031 0V10.5859C7.07031 11.2332 7.59496 11.7578 8.24219 11.7578H16.8103C16.6085 11.4117 16.4844 11.0147 16.4844 10.5859V0H7.07031ZM14.6875 10H8.82812V8.82812H14.6875V10ZM14.6875 7.65625H8.82812V6.48438H14.6875V7.65625ZM14.6875 5.3125H8.82812V1.79688H14.6875V5.3125Z" fill="#8E9292"/>
</svg>
