<svg width="23" height="21" viewBox="0 0 23 21" fill="none" xmlns="http://www.w3.org/2000/svg">
<path d="M11.5574 8.46334C13.6515 8.46334 15.3491 6.76572 15.3491 4.67161C15.3491 2.5775 13.6515 0.879883 11.5574 0.879883C9.4633 0.879883 7.76569 2.5775 7.76569 4.67161C7.76569 6.76572 9.4633 8.46334 11.5574 8.46334Z" fill="#8E9292"/>
<path d="M19.228 8.46357C20.5519 8.46357 21.6251 7.39037 21.6251 6.0665C21.6251 4.74264 20.5519 3.66943 19.228 3.66943C17.9041 3.66943 16.8309 4.74264 16.8309 6.0665C16.8309 7.39037 17.9041 8.46357 19.228 8.46357Z" fill="#8E9292"/>
<path d="M3.88675 8.46357C5.21062 8.46357 6.28382 7.39037 6.28382 6.0665C6.28382 4.74264 5.21062 3.66943 3.88675 3.66943C2.56289 3.66943 1.48969 4.74264 1.48969 6.0665C1.48969 7.39037 2.56289 8.46357 3.88675 8.46357Z" fill="#8E9292"/>
<path d="M6.2485 10.6161C5.30493 9.84307 4.45039 9.9454 3.35938 9.9454C1.72763 9.9454 0.400085 11.2651 0.400085 12.8868V17.6465C0.400085 18.3508 0.974946 18.9235 1.68186 18.9235C4.73381 18.9235 4.36615 18.9787 4.36615 18.7919C4.36615 15.4192 3.96666 12.9458 6.2485 10.6161Z" fill="#8E9292"/>
<path d="M12.5949 9.96256C10.6892 9.80361 9.03288 9.96439 7.60418 11.1437C5.21334 13.0587 5.67345 15.6372 5.67345 18.7916C5.67345 19.6262 6.35247 20.3179 7.19973 20.3179C16.3993 20.3179 16.7655 20.6147 17.311 19.4066C17.4899 18.998 17.4409 19.1279 17.4409 15.2195C17.4409 12.1153 14.753 9.96256 12.5949 9.96256Z" fill="#8E9292"/>
<path d="M19.7554 9.94529C18.6584 9.94529 17.8086 9.84401 16.8663 10.616C19.1311 12.9284 18.7486 15.233 18.7486 18.7918C18.7486 18.9798 18.4434 18.9234 21.3871 18.9234C22.1193 18.9234 22.7147 18.3302 22.7147 17.6011V12.8867C22.7147 11.265 21.3871 9.94529 19.7554 9.94529Z" fill="#8E9292"/>
</svg>
