 <svg width="23" height="21" className=" fill-current mx-auto mt-3 " xmlns="http://www.w3.org/2000/svg">
    <path d="M11.557 8.463a3.792 3.792 0 1 0 0-7.583 3.792 3.792 0 0 0 0 7.583ZM19.228 8.464a2.397 2.397 0 1 0 0-4.795 2.397 2.397 0 0 0 0 4.795ZM3.887 8.464a2.397 2.397 0 1 0 0-4.795 2.397 2.397 0 0 0 0 4.795ZM6.248 10.616c-.943-.773-1.798-.67-2.889-.67-1.631 0-2.959 1.32-2.959 2.94v4.76a1.28 1.28 0 0 0 1.282 1.277c3.052 0 2.684.056 2.684-.131 0-3.373-.4-5.846 1.883-8.176Z" />
    <path d="M12.595 9.963c-1.906-.16-3.562.001-4.99 1.18-2.392 1.916-1.932 4.494-1.932 7.649 0 .834.68 1.526 1.527 1.526 9.2 0 9.566.297 10.111-.911.179-.409.13-.28.13-4.188 0-3.104-2.688-5.256-4.846-5.256ZM19.755 9.945c-1.097 0-1.946-.101-2.889.671 2.265 2.312 1.883 4.617 1.883 8.176 0 .188-.306.131 2.638.131.732 0 1.328-.593 1.328-1.322v-4.714c0-1.622-1.328-2.942-2.96-2.942Z" />
</svg>