<svg width="20" height="20" viewBox="0 0 20 20" fill="none" xmlns="http://www.w3.org/2000/svg">
<path d="M11.854 15.1429L8.85421 12.1381C8.65923 11.9426 8.34266 11.9422 8.14716 12.1372C8.05313 12.231 8.00031 12.3583 8.00026 12.4911V19.4956C8.0004 19.7107 8.13816 19.9016 8.34223 19.9695C8.39314 19.9868 8.44648 19.9956 8.50024 19.9956C8.65759 19.9956 8.8058 19.9215 8.9002 19.7956L11.9 15.7959C12.0491 15.597 12.0295 15.3188 11.854 15.1429Z" fill="#F7AED2"/>
<path d="M9.65737 14.0219L6.65759 13.022C6.39571 12.9345 6.11242 13.0758 6.02486 13.3377C5.99055 13.4403 5.99046 13.5513 6.02463 13.654L8.0245 19.6536C8.09261 19.858 8.28399 19.9958 8.49945 19.9956H8.53044C8.75631 19.9815 8.94459 19.8174 8.9894 19.5956L9.98932 14.5959C10.0397 14.3482 9.89722 14.1018 9.65737 14.0219Z" fill="#A41C60"/>
<path d="M19.7849 0.0931828C19.6255 -0.0182312 19.4161 -0.0271837 19.2479 0.0701688L0.249251 11.0694C0.010393 11.2079 -0.0709761 11.5138 0.0675297 11.7527C0.128744 11.8583 0.226472 11.9378 0.342245 11.9763L9.32159 14.9701L16.3011 17.9619C16.555 18.0704 16.8488 17.9527 16.9574 17.6987C16.9724 17.6635 16.9834 17.6267 16.99 17.5889L19.9898 0.590116C20.0239 0.398739 19.944 0.204878 19.7849 0.0931828Z" fill="#CC2B7C"/>
<path d="M19.9063 0.792051C20.0675 0.567958 20.0166 0.255511 19.7926 0.0941788C19.5929 -0.0494829 19.3184 -0.0266563 19.1453 0.148081L6.10724 13.8991L9.86996 15.199L19.9063 0.792051Z" fill="#A41C60"/>
</svg>
