<svg width="21" height="21" viewBox="0 0 21 21" fill="none" xmlns="http://www.w3.org/2000/svg">
<path d="M20.3708 12.8013L18.4406 11.2919C18.465 11.0591 18.486 10.787 18.486 10.4991C18.486 10.2113 18.4659 9.93915 18.4406 9.70639L20.3726 8.19615C20.7313 7.91265 20.8293 7.40951 20.6009 6.99042L18.5937 3.5175C18.3793 3.12551 17.9094 2.92425 17.4326 3.10013L15.1549 4.01449C14.7183 3.69949 14.2607 3.4335 13.7873 3.22088L13.4408 0.805014C13.3839 0.3465 12.9849 0 12.5133 0H8.48832C8.01668 0 7.61858 0.3465 7.56255 0.798L7.21519 3.22264C6.75668 3.42915 6.30608 3.69165 5.85019 4.01625L3.56644 3.09926C3.13853 2.93389 2.62665 3.11936 2.41403 3.50962L0.40418 6.98689C0.167069 7.38765 0.265055 7.90826 0.631694 8.19878L2.56193 9.70815C2.53129 10.003 2.51644 10.2594 2.51644 10.5C2.51644 10.7407 2.53133 10.997 2.56193 11.2928L0.62993 12.803C0.271167 13.0874 0.174042 13.5905 0.402416 14.0088L2.40968 17.4816C2.62407 17.8728 3.08956 18.0758 3.57079 17.899L5.84843 16.9847C6.28418 17.2988 6.74179 17.5648 7.21519 17.7783L7.56169 20.1933C7.61854 20.6535 8.01668 21 8.48918 21H12.5142C12.9858 21 13.3848 20.6535 13.4408 20.202L13.7882 17.7783C14.2467 17.5709 14.6964 17.3092 15.1532 16.9837L17.4369 17.9007C17.5472 17.9436 17.6618 17.9655 17.7799 17.9655C18.1194 17.9655 18.4318 17.78 18.5893 17.4912L20.6053 14C20.8293 13.5905 20.7313 13.0874 20.3708 12.8013ZM10.5008 14C8.57055 14 7.0008 12.4302 7.0008 10.5C7.0008 8.56976 8.57055 7.00001 10.5008 7.00001C12.431 7.00001 14.0008 8.56976 14.0008 10.5C14.0008 12.4302 12.431 14 10.5008 14Z" fill="#8E9292"/>
</svg>
