<svg width="21" height="21" viewBox="0 0 21 21" fill="none" xmlns="http://www.w3.org/2000/svg">
<path d="M19.3602 15.0073H18.7489V14.2354C18.7489 12.4079 17.2622 10.9212 15.4347 10.9212H11.2527V8.06683H13.0861C13.9903 8.06683 14.7259 7.33121 14.7259 6.42698V2.44649C14.7259 1.5423 13.9903 0.806641 13.0861 0.806641H8.18768C7.28349 0.806641 6.54787 1.54226 6.54787 2.44649V6.42694C6.54787 7.33113 7.28349 8.06679 8.18768 8.06679H10.0211V10.9212H5.59266C3.76516 10.9212 2.27846 12.4079 2.27846 14.2354V15.0072H1.63985C0.735617 15.0073 0 15.7429 0 16.6471V18.5538C0 19.458 0.735617 20.1936 1.63985 20.1936H4.14862C5.05281 20.1936 5.78842 19.458 5.78842 18.5538V16.6471C5.78842 15.7429 5.05281 15.0073 4.14862 15.0073H3.51004V14.2354C3.51004 13.0871 4.4443 12.1529 5.59261 12.1529H10.021V15.0073H9.38247C8.47823 15.0073 7.74262 15.7429 7.74262 16.6471V18.5538C7.74262 19.458 8.47823 20.1936 9.38247 20.1936H11.8912C12.7954 20.1936 13.531 19.458 13.531 18.5538V16.6471C13.531 15.7429 12.7954 15.0073 11.8912 15.0073H11.2527V12.1529H15.4347C16.5831 12.1529 17.5174 13.0871 17.5174 14.2354V15.0073H16.8514C15.9472 15.0073 15.2116 15.7429 15.2116 16.6471V18.5538C15.2116 19.458 15.9472 20.1936 16.8514 20.1936H19.3602C20.2644 20.1936 21 19.458 21 18.5538V16.6471C21 15.7429 20.2644 15.0073 19.3602 15.0073Z" fill="#8E9292"/>
</svg>
